{"glyphs":{"あ":{"ha":1389,"x_min":243,"x_max":1160,"o":"m 767 -94 q 583 -43 665 -121 l 579 -39 q 718 -21 593 -10 q 724 -22 721 -22 q 728 -22 726 -22 q 772 -14 744 -19 q 910 32 871 6 q 931 52 921 42 q 950 74 940 63 q 1036 307 1044 168 q 969 481 1031 407 q 908 525 965 486 q 901 531 904 528 q 894 536 897 535 q 803 519 851 560 q 719 366 765 446 q 615 201 672 286 q 625 165 615 190 q 635 129 635 140 q 601 83 635 82 q 590 86 596 85 q 579 90 585 88 q 519 100 556 115 q 504 90 510 96 l 468 54 q 339 32 404 11 q 300 54 317 39 q 272 222 243 144 q 277 232 275 228 q 281 240 279 236 q 385 415 333 364 q 415 442 400 429 q 449 464 431 454 q 524 632 524 514 q 508 681 524 672 q 468 688 492 688 q 351 746 388 707 q 335 770 343 757 q 319 799 326 783 q 403 781 349 808 q 468 760 444 760 q 553 829 539 779 q 560 892 560 854 q 553 913 560 896 q 560 983 536 958 q 629 960 581 1004 q 651 937 640 949 q 671 911 661 925 l 671 872 q 728 835 674 835 q 807 853 749 835 q 878 854 851 864 l 894 835 q 892 801 915 814 q 878 799 883 799 q 846 791 872 797 q 775 775 819 785 q 748 768 760 772 q 728 760 736 764 q 625 713 647 746 q 599 632 610 689 l 599 593 q 605 585 601 590 q 613 574 608 581 q 635 556 622 558 q 652 560 643 556 q 667 569 661 565 l 671 575 q 721 646 694 642 q 767 632 740 649 q 857 588 790 607 q 894 575 882 582 q 1096 419 1032 538 q 1107 174 1160 299 q 1082 129 1096 149 q 960 -4 1046 57 q 949 -11 956 -7 q 933 -22 943 -15 q 897 -37 924 -25 q 822 -72 869 -50 q 792 -85 806 -79 q 767 -94 778 -92 m 604 357 q 615 353 611 353 q 657 388 643 353 q 661 399 658 390 q 671 425 668 419 q 679 438 674 428 q 694 463 685 447 q 703 473 699 468 q 710 481 707 478 q 688 493 703 481 q 671 500 678 500 q 619 485 654 519 l 615 481 q 599 369 567 432 q 600 367 599 369 q 604 357 601 364 m 365 111 l 375 110 q 482 163 438 110 q 504 240 515 204 q 505 258 504 247 q 507 283 506 269 q 490 403 513 364 q 488 408 488 408 q 319 185 346 324 q 332 144 319 181 q 336 129 336 135 q 346 116 336 121 q 365 111 356 111 z "},"い":{"ha":1389,"x_min":224,"x_max":1189,"o":"m 578 149 q 554 94 597 92 q 514 107 538 96 q 289 369 329 189 q 281 418 283 393 q 279 469 278 443 q 271 599 281 531 q 239 744 261 668 q 236 811 224 803 q 369 646 372 757 q 367 622 368 635 q 364 599 367 610 q 406 278 329 411 q 431 250 413 272 q 492 193 465 207 q 528 271 522 208 q 538 332 532 319 q 551 368 544 347 q 568 415 558 389 q 605 509 586 465 q 646 589 624 553 q 821 713 703 686 q 982 704 904 732 q 1009 691 993 699 q 1047 672 1025 683 q 1085 654 1069 663 q 1111 640 1101 646 q 1178 532 1189 585 q 1133 450 1172 499 q 1118 433 1128 444 q 1097 407 1108 422 q 1013 328 1050 346 q 1003 324 1007 326 q 996 321 999 322 q 951 346 950 315 q 1025 450 958 385 q 1063 575 1090 532 q 1004 619 1044 599 q 810 658 904 697 q 707 556 744 629 q 578 149 578 363 z "},"う":{"ha":1389,"x_min":424,"x_max":954,"o":"m 765 747 q 747 744 756 746 q 732 742 739 743 q 730 745 732 742 q 722 754 728 749 q 726 764 717 761 l 729 764 q 660 893 768 864 q 576 961 608 911 q 567 1032 544 988 q 588 1061 575 1047 q 677 966 638 1004 q 747 908 717 928 q 796 885 774 893 q 804 880 799 883 q 817 874 810 876 q 864 828 861 849 q 861 813 864 821 q 765 747 843 767 m 489 -99 q 439 -96 453 -114 q 454 -65 424 -81 q 461 -62 457 -64 q 469 -60 465 -61 q 499 -41 469 -60 q 586 14 528 -22 q 634 49 614 33 q 664 75 654 64 q 839 524 900 253 q 783 590 839 589 q 743 583 767 590 q 590 504 703 568 q 588 503 589 503 q 469 544 501 478 q 510 617 469 601 q 529 621 521 621 q 565 603 531 603 q 669 618 606 589 q 702 632 689 626 q 722 640 715 638 q 908 583 847 693 q 936 389 954 499 q 932 346 933 374 q 927 302 931 321 q 918 271 924 283 q 535 -79 788 38 q 512 -89 524 -85 q 489 -99 500 -93 z "},"え":{"ha":1389,"x_min":276,"x_max":1182,"o":"m 654 764 q 607 758 626 742 q 613 782 597 772 q 621 906 682 851 q 601 921 614 913 q 574 940 589 929 q 554 968 557 940 q 553 988 553 975 q 553 1019 553 1001 q 715 931 613 960 q 851 881 814 903 q 821 851 854 869 q 743 811 800 838 q 654 764 674 778 m 1128 14 q 851 -47 1008 -47 q 713 44 738 -47 q 711 132 703 82 q 716 149 711 132 q 731 201 721 167 q 711 347 751 307 q 529 188 661 335 q 415 71 435 85 q 325 7 361 -8 q 320 11 322 10 q 315 14 318 13 q 338 132 276 74 q 422 286 372 203 q 535 467 471 369 q 608 561 535 490 l 613 565 l 593 586 q 493 550 568 586 q 456 525 464 536 q 326 542 393 507 q 321 544 324 543 q 315 547 318 546 q 300 600 281 582 q 338 604 315 611 q 550 644 431 588 q 568 653 557 647 q 593 665 579 658 q 619 676 603 669 q 657 692 635 682 q 703 710 685 703 q 732 724 722 718 q 807 679 804 736 q 790 625 807 644 q 553 368 635 500 q 535 268 510 317 q 558 292 544 278 q 586 325 571 307 q 692 425 654 399 q 804 413 753 467 q 833 368 822 394 q 829 303 833 349 q 815 189 825 258 q 811 147 813 167 q 810 111 810 126 q 849 22 810 36 q 910 14 869 14 q 1114 101 988 14 q 1119 106 1117 103 q 1128 111 1122 108 q 1174 97 1165 132 q 1153 29 1182 60 q 1128 14 1139 18 z "},"お":{"ha":1389,"x_min":203,"x_max":1192,"o":"m 476 15 q 421 25 451 8 q 358 75 403 33 q 321 104 338 94 q 261 106 304 111 q 203 124 224 103 q 290 203 226 168 q 381 263 356 238 q 435 421 421 324 q 421 521 444 497 q 400 544 421 532 q 381 560 388 553 q 319 543 372 560 q 243 551 268 526 q 217 604 226 565 q 231 636 207 639 q 263 622 244 633 q 321 600 293 603 q 417 656 378 600 q 439 721 439 686 q 421 899 439 840 q 423 905 421 899 q 428 924 425 911 q 433 932 431 928 q 439 939 436 936 q 449 937 439 939 q 479 929 460 935 q 521 860 531 907 q 519 761 515 839 q 521 750 521 756 q 521 740 521 744 q 540 700 524 704 q 603 729 576 699 q 619 740 614 740 q 663 763 646 764 q 701 742 681 761 l 703 740 q 751 682 760 708 q 674 651 742 660 q 585 614 618 631 q 538 586 551 597 q 510 453 497 549 q 514 419 511 438 q 521 382 517 401 q 602 406 551 389 q 725 454 653 424 q 765 469 747 463 q 799 482 783 476 q 1054 490 939 531 q 1168 339 1172 451 q 1159 283 1167 313 q 1136 222 1151 254 q 847 56 1021 47 q 813 59 829 57 q 779 65 796 61 q 688 157 699 93 q 760 301 678 228 q 778 268 778 283 l 779 263 q 760 200 779 250 q 760 164 751 174 q 868 124 799 125 l 900 124 q 1026 222 967 143 q 1079 363 1079 296 q 989 433 1057 408 q 839 440 917 458 q 661 363 722 406 q 535 271 563 329 q 524 111 511 215 q 476 15 522 31 m 1069 594 q 960 560 996 551 q 964 653 1021 629 q 915 665 949 660 q 839 700 850 681 q 1026 724 847 740 q 1047 722 1039 722 q 1058 721 1056 721 q 1175 675 1140 717 q 1178 640 1192 653 q 1069 594 1147 640 m 393 132 q 421 135 413 129 q 431 158 429 142 q 431 186 433 174 l 428 200 q 421 196 428 200 q 399 182 414 192 q 375 153 382 169 q 393 132 369 139 z "},"か":{"ha":1389,"x_min":158,"x_max":1293,"o":"m 585 11 q 492 29 536 -12 q 479 49 486 36 q 463 76 472 61 q 424 137 443 113 q 386 174 404 161 q 379 178 381 176 q 338 147 356 178 q 320 122 328 132 q 306 104 313 111 q 213 29 250 49 q 193 17 213 10 q 175 29 183 21 q 161 49 158 29 q 175 65 163 63 q 296 213 240 133 q 399 385 351 292 q 472 497 438 421 q 417 504 447 522 q 399 497 403 497 q 275 496 325 461 q 229 533 254 508 q 227 537 229 533 q 222 547 225 540 q 229 553 224 550 q 249 571 240 568 q 482 639 360 550 q 488 643 485 642 q 492 646 490 644 q 581 729 568 697 q 558 847 593 763 q 554 858 557 853 q 549 869 551 864 q 565 926 551 908 l 604 926 q 688 858 674 885 q 678 721 706 821 q 697 703 689 706 q 839 567 814 626 q 819 376 868 503 q 814 362 817 369 q 808 347 811 354 q 780 293 807 343 q 700 146 753 243 q 689 124 694 135 q 678 104 683 114 q 588 13 651 44 q 585 11 586 11 m 1257 403 q 1188 343 1221 367 q 1126 310 1156 319 q 1147 431 1154 401 q 1079 525 1142 461 l 1051 553 q 976 627 1004 600 q 939 664 949 654 q 926 669 931 664 q 922 678 922 674 l 921 683 q 938 688 929 683 q 953 697 947 693 l 958 703 q 962 701 958 703 q 972 697 965 700 q 978 683 978 692 q 1257 515 1121 624 q 1283 450 1293 497 q 1257 403 1278 424 m 511 104 q 569 94 533 79 q 585 104 579 99 q 680 276 638 182 q 753 478 722 369 q 735 590 753 554 q 678 646 733 643 q 629 624 650 646 q 622 608 622 614 q 588 583 599 608 q 585 571 585 575 q 444 301 556 482 q 428 274 435 286 q 417 254 422 263 q 433 227 424 243 q 453 190 442 211 q 511 104 489 126 z "},"き":{"ha":1389,"x_min":254,"x_max":1103,"o":"m 929 -11 q 863 -25 903 -22 q 768 -22 822 -28 q 517 71 626 6 q 411 240 386 150 q 544 358 443 340 q 608 358 554 360 q 764 353 663 357 l 786 353 q 865 383 856 353 q 861 446 872 407 q 786 485 825 482 q 578 446 685 433 q 504 465 538 450 q 460 538 464 486 q 467 578 458 560 q 475 593 469 583 q 489 617 481 603 q 524 690 524 676 q 504 687 519 690 q 463 676 489 683 q 393 659 419 665 q 356 653 367 653 q 276 671 311 638 q 268 704 254 694 l 281 708 q 597 807 418 713 q 674 860 672 847 q 611 926 676 892 q 558 963 561 954 q 561 972 558 967 q 681 964 622 1014 q 687 958 683 961 q 693 953 690 956 q 803 819 776 867 q 824 767 818 792 q 885 651 851 686 q 909 632 896 642 q 936 615 922 622 q 936 619 936 617 q 935 628 936 622 q 956 696 931 699 q 964 694 960 694 q 974 690 968 693 q 1033 678 988 690 q 1067 672 1050 672 q 1074 610 1103 636 q 1049 597 1064 604 q 939 446 951 558 q 937 419 938 433 q 936 390 936 406 q 939 349 947 378 q 937 340 938 343 q 936 333 936 336 q 843 260 935 263 q 674 306 772 294 q 524 278 568 319 q 564 115 436 197 q 806 32 667 51 q 835 32 814 31 q 889 38 856 33 q 954 32 929 42 q 929 -11 972 7 m 554 536 q 617 503 575 499 q 786 558 728 519 q 824 615 821 596 q 768 708 789 689 q 717 738 747 747 q 706 733 711 736 q 693 728 700 731 q 561 597 614 676 q 554 536 535 575 z "},"く":{"ha":1389,"x_min":394,"x_max":972,"o":"m 946 -31 q 879 -46 915 -65 q 865 -34 872 -40 q 851 -18 858 -28 q 471 403 689 243 q 431 543 394 429 q 551 706 467 579 q 672 944 657 865 q 699 971 672 963 q 733 965 718 976 q 761 904 761 906 q 756 853 767 878 q 617 665 749 817 q 532 564 547 588 q 521 453 483 511 q 538 431 528 443 q 561 403 547 418 q 840 157 672 331 q 953 22 940 53 q 946 -31 972 -1 z "},"け":{"ha":1389,"x_min":289,"x_max":1183,"o":"m 794 -83 q 771 -87 782 -96 q 756 -83 763 -83 q 742 -74 742 -83 q 756 -64 743 -65 q 894 397 915 147 q 893 410 893 404 q 892 422 893 417 l 892 461 q 893 483 892 469 q 897 514 894 496 q 892 618 911 589 q 872 636 882 631 q 835 651 850 651 q 800 651 819 651 q 772 642 794 653 q 735 625 749 632 l 718 617 q 619 636 636 619 q 615 642 619 636 q 604 658 611 647 q 600 675 600 669 l 619 694 l 756 694 q 867 739 851 722 q 878 829 886 758 q 876 846 876 836 q 872 869 875 856 l 872 947 q 878 972 858 961 q 911 967 897 979 q 989 908 979 967 q 990 899 990 903 q 990 889 990 894 l 990 811 q 1022 765 990 763 q 1035 768 1029 767 q 1047 772 1042 769 q 1086 786 1057 772 q 1106 792 1097 792 q 1172 783 1147 813 q 1183 753 1183 768 q 1108 708 1183 736 q 1047 694 1071 694 q 994 635 1003 671 q 990 597 990 618 q 986 545 990 585 q 975 440 982 506 q 971 399 972 418 q 969 364 969 379 q 915 82 969 228 q 794 -83 863 -54 m 444 -25 q 374 -11 407 -44 q 367 -6 371 -10 q 289 306 292 101 l 289 344 q 296 399 292 367 q 306 475 300 432 q 331 843 340 721 q 329 857 329 850 q 328 869 329 864 q 347 896 318 896 q 363 893 354 894 q 386 889 372 892 q 432 744 450 846 q 429 729 431 738 q 425 714 428 721 l 367 422 q 347 267 347 381 q 386 247 375 247 l 406 247 q 440 321 410 251 q 513 404 478 404 q 522 403 519 404 q 493 290 538 372 q 449 205 465 240 q 425 150 432 169 q 424 138 425 144 q 422 121 424 131 q 438 40 415 65 l 444 33 q 453 10 444 26 q 453 -24 468 -21 q 444 -25 450 -25 z "},"こ":{"ha":1389,"x_min":350,"x_max":1088,"o":"m 693 653 q 644 631 658 621 q 639 635 642 632 q 629 675 615 658 q 647 697 640 689 q 656 707 654 704 q 657 760 704 754 q 639 761 651 761 q 550 785 622 768 q 513 797 528 792 q 454 821 486 797 q 439 869 426 846 q 541 848 482 861 q 674 815 600 835 l 890 815 q 967 765 953 815 q 961 726 974 739 q 925 717 950 726 q 890 707 900 707 q 693 653 800 706 m 836 -12 q 439 78 639 -36 q 350 221 354 111 q 368 367 350 314 q 421 385 390 386 q 439 367 436 383 q 422 258 438 304 l 422 221 q 476 132 424 160 q 907 78 692 7 q 965 106 965 106 q 1015 113 990 113 q 1085 74 1072 113 q 1088 58 1088 63 q 1049 8 1088 22 q 1040 6 1043 7 q 1033 6 1036 6 q 947 -8 997 -4 q 836 -12 897 -12 z "},"さ":{"ha":1389,"x_min":351,"x_max":1000,"o":"m 760 -68 q 614 -42 733 -99 q 450 79 499 14 q 438 100 442 90 q 521 318 378 243 q 726 363 615 367 q 775 354 758 360 q 815 338 790 347 q 856 314 844 325 q 843 544 894 410 q 834 569 840 554 q 821 601 828 583 q 802 647 810 628 q 790 681 794 667 q 713 700 758 700 q 564 633 658 650 q 374 663 456 614 q 358 743 351 706 q 413 742 369 775 q 593 722 496 688 q 628 738 603 726 q 692 760 669 756 q 715 804 718 774 q 713 830 714 821 q 713 840 713 839 q 556 978 669 904 l 554 978 l 553 979 q 527 1016 522 1004 q 555 1027 532 1028 q 600 1010 578 1026 q 606 1005 603 1007 q 611 1000 610 1003 q 694 938 643 978 q 737 905 718 919 q 769 881 756 890 q 844 839 819 831 q 908 901 868 847 q 914 907 911 904 q 921 915 917 910 q 953 928 935 933 q 968 921 957 926 q 985 863 993 899 q 949 819 979 832 q 879 693 863 767 q 908 621 886 664 q 978 360 1000 469 q 967 325 974 342 q 954 293 961 308 q 915 236 954 271 q 886 201 915 204 q 856 214 868 201 q 838 219 847 214 q 822 231 828 225 l 817 236 q 657 297 714 304 q 567 260 619 293 q 596 53 435 172 q 699 -8 640 19 q 746 -29 703 -15 q 760 -68 778 -46 z "},"し":{"ha":1389,"x_min":428,"x_max":1089,"o":"m 881 -31 q 685 -57 807 -81 q 497 61 553 -32 q 469 146 474 103 q 483 447 458 214 q 488 491 486 474 q 489 518 489 508 l 489 733 q 471 868 489 832 q 469 872 469 869 q 465 876 468 874 q 458 882 463 879 q 436 931 428 908 q 450 950 440 940 q 522 917 481 950 l 528 911 q 607 714 607 860 q 568 460 568 560 l 568 225 q 597 94 568 181 q 603 81 600 88 q 607 68 606 74 q 797 -3 686 -39 q 811 3 804 0 q 824 8 818 6 q 1014 221 913 53 q 1028 245 1022 235 q 1039 264 1035 256 q 1068 274 1047 288 q 1078 243 1089 258 q 881 -31 1011 50 z "},"す":{"ha":1389,"x_min":204,"x_max":1129,"o":"m 475 -96 q 432 -96 457 -114 q 422 -79 425 -89 q 457 -43 431 -44 q 638 79 568 -28 q 661 119 649 96 q 688 169 674 142 q 688 236 707 210 q 680 247 685 242 q 669 257 675 251 q 642 268 653 257 q 633 275 639 269 q 551 425 506 324 q 633 524 575 474 q 644 528 633 524 q 678 539 656 532 q 688 540 682 540 q 733 579 733 556 q 730 594 732 586 q 724 611 728 601 q 668 649 724 654 q 658 647 661 647 q 653 647 654 647 q 457 593 511 613 q 239 654 342 556 q 233 660 236 657 q 228 665 231 663 q 231 717 204 706 q 261 704 250 725 q 263 700 263 703 q 497 674 356 638 q 533 684 511 678 q 582 700 554 690 l 599 700 q 663 713 604 704 q 724 753 711 724 q 704 929 756 856 q 656 990 668 950 q 669 1018 647 1019 l 704 1018 q 810 946 792 975 q 829 842 829 914 l 829 788 q 851 754 829 758 q 858 753 854 753 q 865 753 863 753 q 913 767 907 753 q 917 788 917 775 q 915 801 917 796 q 929 839 910 825 q 935 842 935 842 q 1015 789 958 833 q 1076 753 1051 761 q 1129 718 1126 751 q 1074 699 1114 690 q 1065 700 1068 700 q 1058 700 1061 700 q 865 682 915 700 q 794 628 803 664 q 793 619 793 624 q 793 611 793 615 q 811 417 811 540 q 715 72 839 229 q 475 -96 618 -49 m 669 311 q 724 364 722 288 l 724 399 q 710 449 724 443 q 688 453 701 453 q 635 436 669 469 l 633 435 q 644 325 571 371 q 656 318 650 322 q 669 311 663 314 z "},"せ":{"ha":1389,"x_min":197,"x_max":1121,"o":"m 1089 -49 q 1060 -58 1079 -56 q 619 143 783 -21 q 539 364 539 224 q 506 444 539 444 q 484 439 496 443 q 458 425 472 435 q 419 410 453 425 q 399 404 408 404 q 261 400 351 374 q 197 444 197 421 q 411 490 297 431 q 518 544 508 542 q 565 607 567 576 q 539 686 565 633 q 528 740 496 732 q 542 742 536 740 q 560 746 556 743 q 660 665 601 722 q 763 657 700 625 q 779 665 769 661 q 821 749 819 685 l 821 767 q 765 915 821 813 q 739 986 736 971 q 832 964 789 1024 q 860 867 868 914 q 925 807 886 814 q 933 806 929 806 q 940 806 938 806 q 1064 779 1024 806 q 1121 725 1093 763 q 1019 683 1094 699 q 928 640 950 671 q 924 633 926 638 q 919 626 922 629 q 875 486 896 588 q 867 451 871 467 q 860 425 863 436 q 739 383 825 329 q 660 444 699 426 q 639 261 604 360 q 643 251 640 257 q 824 76 689 144 q 1004 35 931 24 q 1088 3 1056 43 q 1089 -49 1114 -29 m 760 464 q 794 507 782 463 q 782 583 808 563 q 779 585 781 585 q 704 557 725 585 q 700 544 700 551 q 746 467 700 482 q 760 464 754 464 z "},"そ":{"ha":1389,"x_min":388,"x_max":1033,"o":"m 490 351 q 426 322 460 321 q 406 332 413 325 q 410 408 388 365 q 413 414 411 411 q 415 419 414 417 q 422 432 418 426 q 426 440 425 438 q 499 538 450 474 q 622 700 549 603 q 651 763 656 749 q 601 807 644 778 q 490 894 556 829 q 454 969 436 924 q 464 986 458 978 q 476 1001 469 994 q 614 897 579 904 q 665 917 640 892 q 690 933 676 924 q 722 957 704 943 q 839 1024 796 1010 q 946 1001 906 1021 q 926 894 983 926 q 897 869 922 890 q 822 808 871 847 q 774 764 792 782 q 614 614 656 679 q 592 572 600 593 q 578 528 583 550 q 682 528 624 506 q 756 540 733 546 q 772 532 767 536 q 774 518 778 525 q 753 504 769 514 l 751 504 q 490 351 574 414 m 725 808 l 731 807 q 836 915 822 868 q 822 938 843 939 q 815 936 818 938 q 735 886 776 936 q 710 829 713 856 q 715 814 710 819 q 725 808 719 808 m 886 -93 q 840 -121 882 -121 q 783 -107 813 -121 q 685 199 607 -22 q 686 201 686 200 q 707 235 694 214 q 738 283 719 256 q 794 374 768 335 q 839 440 819 414 q 869 493 869 485 q 825 526 869 507 q 783 543 813 531 q 810 579 769 553 q 904 613 856 608 q 1033 592 983 638 q 1003 524 1033 553 q 968 482 976 500 q 832 317 928 442 q 813 291 822 303 q 794 268 803 279 q 825 -31 660 76 q 886 -93 890 -58 z "},"た":{"ha":1389,"x_min":238,"x_max":1139,"o":"m 1110 -25 q 1097 -31 1104 -31 q 721 96 868 -28 q 635 290 603 175 q 685 382 650 336 q 903 476 742 449 q 971 490 963 488 q 1007 507 1004 492 q 983 540 1007 529 q 971 543 975 543 q 668 525 844 644 q 488 292 510 431 q 363 42 465 178 q 306 -28 333 -19 q 290 -31 294 -31 q 238 -12 256 -29 q 238 -5 238 -12 q 240 18 239 3 q 272 76 249 49 q 415 323 353 179 q 525 651 478 467 q 467 678 499 669 q 399 688 435 686 l 381 688 q 286 747 322 699 q 272 776 272 765 q 310 794 274 794 q 431 767 347 794 q 442 763 438 765 q 453 760 447 761 q 558 829 550 733 q 560 839 560 835 q 560 849 560 843 q 543 953 579 885 q 542 957 543 956 q 539 1004 524 983 q 597 994 558 1032 q 606 985 601 989 q 614 975 610 981 q 649 883 649 928 q 721 794 672 844 q 774 782 725 793 q 813 736 815 772 q 811 729 811 733 q 810 722 811 725 q 735 703 796 696 q 714 705 722 704 q 701 706 706 706 q 614 579 592 675 q 665 601 631 579 q 701 615 685 615 q 1054 569 906 682 q 1095 533 1076 553 q 1132 490 1114 514 l 1132 454 q 1107 419 1132 424 q 1095 418 1101 418 q 1079 418 1089 418 l 917 418 q 792 364 846 417 q 719 224 713 313 q 801 100 726 142 l 810 96 q 1043 42 931 33 q 1117 32 1094 46 q 1136 3 1139 18 l 1132 -12 q 1110 -25 1125 -12 z "},"ち":{"ha":1389,"x_min":356,"x_max":1014,"o":"m 644 -61 q 532 -75 590 -75 q 517 -69 522 -75 q 511 -58 513 -64 l 511 -54 q 575 -8 526 -26 q 613 6 604 1 q 857 168 731 46 l 896 207 q 926 282 915 226 q 851 386 943 378 q 843 388 847 388 q 835 388 839 388 q 593 246 721 365 q 583 238 588 242 q 574 228 579 233 q 517 219 549 203 q 493 247 501 231 q 433 468 433 332 q 458 660 465 621 q 392 750 447 708 q 365 818 356 792 q 406 819 375 842 q 433 792 421 808 q 532 810 501 757 q 532 971 578 904 q 511 1014 506 1000 q 532 1032 517 1024 q 593 1011 575 1029 q 654 910 663 967 q 633 851 650 883 q 694 810 636 810 q 775 871 732 829 q 853 889 803 924 q 875 871 865 881 q 796 790 914 833 q 733 771 768 781 q 656 750 699 761 q 511 589 547 724 q 538 383 511 450 q 544 365 540 374 q 553 349 549 357 q 665 388 614 349 q 683 399 676 394 q 694 407 690 404 q 949 406 851 490 q 1014 272 1010 353 q 997 207 1014 231 q 644 -61 828 -18 z "},"つ":{"ha":1389,"x_min":154,"x_max":1299,"o":"m 588 64 l 568 63 q 568 99 544 82 q 576 102 572 101 q 585 104 581 103 q 935 211 668 108 q 963 222 953 218 q 976 226 974 225 q 1124 399 1113 304 q 1126 417 1125 408 q 1125 435 1126 425 q 963 643 1067 600 q 892 661 933 657 q 572 579 710 651 q 556 569 564 574 q 539 560 547 565 q 478 529 521 550 q 433 506 451 515 q 403 490 414 497 q 219 522 324 435 q 211 528 217 525 q 199 538 206 532 q 156 590 154 568 q 157 597 156 596 q 329 564 286 563 q 496 622 379 567 q 512 630 503 625 q 533 640 521 635 q 735 699 600 672 q 776 708 758 704 q 808 715 794 713 q 1175 567 1001 728 q 1197 545 1186 557 q 1219 522 1208 533 q 1253 351 1299 426 q 1232 322 1244 338 q 1178 278 1225 313 q 1156 258 1161 267 q 763 79 931 114 q 676 66 719 69 q 588 64 632 63 z "},"て":{"ha":1389,"x_min":224,"x_max":1146,"o":"m 996 -28 q 969 -50 989 -44 q 933 -53 950 -56 l 918 -49 q 866 -17 897 -36 q 794 26 835 1 q 713 75 747 54 q 656 110 679 96 q 582 308 553 189 q 707 664 614 525 q 757 754 756 692 q 655 724 718 746 q 504 668 592 703 q 324 654 393 621 q 282 681 304 664 q 236 722 260 699 q 234 726 236 722 q 226 739 232 731 q 233 765 224 756 q 278 788 235 788 q 581 776 393 689 q 593 782 588 779 q 604 788 599 785 q 818 844 726 822 q 971 874 910 865 q 1078 892 1013 894 q 1135 856 1122 889 q 1117 811 1146 824 q 1106 809 1111 810 q 1094 808 1101 808 q 1074 805 1092 808 q 1025 794 1057 801 q 990 790 1007 790 q 839 686 889 789 q 779 629 817 675 q 769 618 771 621 q 683 325 664 494 q 690 284 686 306 q 700 239 694 263 q 756 153 722 175 q 769 147 763 150 q 783 140 776 143 q 906 86 835 122 q 975 35 950 64 q 1001 10 992 35 q 996 -28 1008 -14 z "},"と":{"ha":1389,"x_min":333,"x_max":1042,"o":"m 889 6 q 657 -17 756 -49 q 615 4 635 -8 q 493 167 504 60 q 535 307 489 236 q 585 401 589 375 q 536 464 583 419 l 514 486 q 431 613 461 568 q 394 668 401 658 q 333 910 333 761 q 374 958 339 956 q 394 950 389 961 q 414 889 414 926 q 504 604 394 736 q 535 567 518 586 q 575 526 553 549 q 696 526 638 439 q 756 614 711 542 q 776 645 767 632 q 796 668 786 658 q 958 749 872 744 q 1017 728 1004 751 q 1029 667 1042 704 q 1017 647 1022 653 q 900 564 954 585 q 892 561 896 563 q 883 558 888 560 q 904 640 871 585 q 917 668 917 661 q 840 626 894 668 q 789 564 792 589 q 804 549 778 556 q 872 553 842 539 q 815 481 857 506 q 803 472 808 475 q 796 467 799 469 q 776 406 776 428 l 776 388 q 779 349 793 368 q 757 347 769 338 q 626 319 675 388 q 594 267 611 297 q 589 154 572 219 q 635 85 603 108 q 769 42 697 24 q 774 43 772 43 q 776 44 775 43 q 854 72 808 50 q 960 133 900 94 q 976 146 971 142 l 989 146 q 997 88 1008 136 l 997 85 q 889 6 983 46 z "},"な":{"ha":1389,"x_min":240,"x_max":1207,"o":"m 339 203 q 331 203 339 203 q 307 201 322 203 q 301 203 306 203 q 297 301 240 218 q 309 317 304 310 q 319 329 314 324 q 401 472 364 390 q 468 654 438 553 q 474 676 471 664 q 482 704 478 689 q 414 731 463 725 q 390 735 400 732 q 374 740 381 738 q 300 783 339 740 q 283 811 285 803 q 285 814 283 811 q 288 822 286 817 q 301 828 293 828 l 463 828 q 544 861 531 828 q 553 919 553 882 q 539 953 553 925 q 533 972 533 964 q 560 1001 533 1001 q 588 990 579 999 l 600 986 q 606 972 606 981 q 663 905 632 933 q 729 857 694 876 q 739 852 735 854 q 747 847 743 850 q 742 807 767 847 q 731 792 736 797 l 714 792 q 557 710 606 792 q 538 669 547 693 q 517 614 528 646 q 360 222 413 293 q 339 203 351 210 m 810 -54 q 747 -64 781 -64 q 613 6 665 -64 q 588 151 565 75 q 625 213 588 190 q 660 222 643 222 l 819 222 q 857 426 843 288 q 908 632 869 564 q 838 678 890 664 q 783 704 800 688 q 1106 632 938 767 q 1129 617 1125 632 q 1122 597 1132 607 q 1099 561 1122 565 q 1086 560 1093 560 q 1069 560 1079 560 q 985 576 1013 589 q 963 560 974 571 q 928 481 931 546 l 928 329 q 981 169 947 210 q 1088 115 1018 126 q 1138 86 1115 100 q 1178 61 1161 72 q 1178 -29 1207 39 q 1122 -35 1156 -50 q 1088 8 1097 -19 q 1019 61 1035 60 q 958 22 1000 64 l 944 8 q 810 -54 842 -46 m 676 43 q 765 8 706 8 q 826 47 804 8 q 836 79 836 63 q 797 161 836 139 q 783 168 790 165 l 731 168 q 646 136 678 168 l 642 132 q 676 43 628 97 z "},"に":{"ha":1389,"x_min":211,"x_max":1235,"o":"m 371 19 q 296 53 332 1 q 283 75 289 63 q 211 267 211 143 q 220 327 214 290 q 235 411 226 364 q 251 515 244 471 q 263 586 258 558 q 283 797 300 718 q 263 847 258 842 q 283 853 268 853 q 319 856 294 864 q 328 853 325 854 q 335 853 332 853 q 381 697 407 776 q 376 686 379 692 q 371 675 374 681 q 299 446 331 596 l 299 375 q 317 339 300 340 q 335 357 333 351 q 360 390 343 365 q 388 426 379 418 q 533 626 421 510 l 553 646 q 558 653 556 650 q 563 657 561 656 q 1022 818 726 818 q 1063 819 1032 828 q 1070 818 1067 818 q 1075 818 1074 818 q 1108 786 1097 818 q 1110 774 1110 781 q 1111 763 1111 768 q 1088 731 1111 742 q 1075 728 1079 728 l 1022 728 q 749 578 865 728 q 728 549 739 564 q 706 515 717 533 q 690 339 647 428 q 793 251 726 274 q 1022 233 940 213 l 1182 233 q 1232 203 1218 233 q 1235 197 1235 197 q 1204 132 1235 167 q 1201 129 1203 131 q 1199 126 1200 128 l 1147 126 q 919 159 1013 146 q 775 179 826 172 q 731 197 757 189 q 706 207 717 203 q 688 215 696 211 q 599 410 601 263 q 724 639 631 550 q 775 675 746 642 l 775 710 l 740 710 q 351 179 435 558 q 367 128 351 178 q 371 110 371 115 q 386 33 399 51 q 379 26 383 29 q 371 19 375 22 z "},"ぬ":{"ha":1389,"x_min":186,"x_max":1169,"o":"m 1139 42 q 1054 74 1103 33 q 1033 124 1050 81 q 1025 140 1029 133 q 1017 151 1021 146 q 972 176 986 178 q 958 168 965 175 q 847 94 921 131 q 757 71 806 53 q 754 72 756 72 q 751 74 753 72 q 689 133 694 103 q 693 151 686 144 q 710 180 700 163 q 732 219 721 197 q 764 272 750 250 q 789 304 778 293 q 901 331 831 346 q 912 328 907 329 q 922 325 917 326 q 1008 363 983 325 l 1017 379 q 1038 532 1038 440 q 1006 582 1038 547 l 999 589 q 768 685 881 707 q 704 657 740 685 q 699 652 701 654 q 693 647 696 650 q 665 589 682 624 q 629 507 649 554 q 579 398 601 443 q 542 325 557 353 q 532 247 519 279 q 537 237 535 242 q 542 226 539 232 q 579 147 565 175 q 596 113 593 118 q 576 90 603 96 q 524 108 538 82 q 522 110 522 110 q 521 113 522 111 q 444 157 464 154 q 389 131 428 154 q 321 92 356 86 q 315 93 318 93 q 310 94 313 93 q 221 174 260 110 q 197 265 186 228 q 285 428 229 368 q 293 436 289 435 q 368 619 363 510 l 368 667 q 365 717 368 678 q 354 825 361 757 q 351 876 350 864 q 446 788 407 872 q 483 647 472 729 q 657 875 650 672 l 657 894 q 657 900 657 897 q 656 908 657 903 q 672 950 650 944 q 683 952 678 951 q 693 953 688 953 q 758 911 736 953 q 768 876 768 893 q 756 836 768 872 q 751 821 751 826 l 751 763 q 865 734 819 749 q 938 706 911 719 q 1017 647 983 683 q 1126 524 1110 583 q 1111 379 1139 472 q 1093 361 1099 363 q 1132 151 1028 229 q 1169 82 1165 118 q 1139 42 1169 50 m 465 419 q 499 392 493 389 q 500 400 500 393 q 567 519 518 424 q 596 569 582 551 q 579 610 607 606 q 488 572 557 622 q 474 561 481 567 q 465 553 468 556 q 457 438 428 497 q 465 419 458 431 m 254 210 q 310 168 294 164 q 394 231 378 194 q 406 342 413 265 q 400 357 406 350 q 389 400 389 379 q 383 404 389 400 q 365 417 376 408 q 358 419 361 418 q 351 419 354 419 q 265 299 296 382 q 254 210 244 242 m 768 168 q 810 138 771 132 q 888 193 856 143 q 897 210 893 201 q 903 226 900 218 q 910 246 917 226 q 876 269 901 272 l 864 265 q 790 221 828 265 q 768 168 768 193 z "},"ね":{"ha":1389,"x_min":161,"x_max":1217,"o":"m 460 -17 q 421 -1 436 -31 q 417 11 419 3 q 410 28 413 21 q 404 39 407 35 l 404 76 q 379 151 392 146 q 306 122 365 157 q 299 119 303 121 q 292 114 296 117 q 242 132 260 107 q 236 171 228 150 q 260 229 247 192 q 292 321 274 267 q 365 455 332 399 q 424 546 399 511 l 386 583 q 308 531 372 578 q 290 517 299 524 q 274 508 281 511 q 197 524 217 508 q 161 565 179 540 l 161 603 l 178 611 q 199 603 190 611 q 236 599 211 603 q 311 603 286 590 q 447 735 426 661 q 424 921 464 799 q 424 978 396 950 q 429 976 424 978 q 444 971 435 974 q 453 965 449 968 q 460 958 457 961 q 536 847 532 917 q 535 828 536 840 q 533 801 535 817 q 550 665 526 707 q 554 658 553 660 q 547 624 567 647 q 536 603 536 608 q 511 563 528 594 q 499 546 506 553 q 513 504 494 521 q 536 508 525 497 q 649 603 574 528 q 856 753 747 700 q 1017 749 936 800 q 1099 640 1076 711 q 1081 376 1129 510 q 1018 279 1057 356 q 1001 251 1008 264 q 986 226 993 238 q 1057 164 1010 193 q 1099 133 1086 146 q 1197 54 1171 97 q 1193 1 1217 21 q 1138 -3 1168 -21 q 1117 21 1124 8 q 1004 133 1090 75 q 892 133 949 190 q 778 65 863 103 q 768 62 772 64 q 761 58 764 60 q 631 133 663 35 q 704 306 583 249 q 724 314 714 310 q 743 321 733 318 q 853 294 783 326 q 913 283 894 275 q 986 433 950 322 q 1004 640 1004 489 q 932 715 1008 714 l 929 715 q 721 588 876 717 q 600 476 651 528 q 517 376 549 424 q 496 318 490 363 q 498 296 497 304 q 499 283 499 288 l 499 39 q 485 -11 499 -6 q 460 -17 475 -17 m 724 114 q 821 149 757 96 q 841 169 832 160 q 856 189 850 179 q 836 226 851 224 q 738 253 801 264 q 688 226 706 244 q 667 153 667 208 q 703 117 667 128 q 713 115 708 115 q 724 114 718 114 z "},"の":{"ha":1389,"x_min":222,"x_max":1153,"o":"m 806 39 q 759 10 786 18 q 712 5 732 1 q 692 24 692 8 q 758 93 694 93 q 1026 363 949 168 q 1057 490 1057 436 q 960 729 1057 653 q 915 758 940 744 q 860 786 890 772 q 776 764 794 786 q 768 750 771 758 q 694 549 729 632 q 632 418 660 467 q 628 410 631 414 q 624 404 626 407 q 461 221 531 265 q 349 211 418 192 q 231 344 253 239 q 224 395 225 368 q 225 451 222 422 q 363 704 240 575 q 617 863 483 829 q 953 810 771 900 q 1111 699 1043 765 q 1153 490 1153 618 q 1038 221 1153 368 q 808 40 931 85 q 806 39 807 39 m 301 332 q 403 289 324 271 q 483 340 461 303 q 489 351 488 346 q 639 679 582 490 q 644 697 642 689 q 650 715 647 706 q 639 769 664 742 q 582 767 613 797 q 404 633 492 738 q 300 344 283 489 q 301 332 300 336 z "},"は":{"ha":1389,"x_min":258,"x_max":1197,"o":"m 404 -51 q 388 -69 394 -67 q 260 124 268 0 q 260 153 258 139 q 263 182 261 168 q 266 219 263 188 q 276 308 269 250 q 281 360 281 340 q 297 861 365 628 q 315 914 288 908 q 351 897 349 913 q 422 664 471 804 q 413 614 422 649 q 386 524 404 579 q 376 492 381 507 q 369 467 372 478 q 371 364 358 406 q 386 357 376 346 q 388 360 386 358 q 744 699 489 586 q 840 779 824 729 q 849 815 846 794 q 851 861 851 835 q 847 894 851 874 q 851 950 842 928 q 949 922 938 935 q 960 861 960 908 l 960 807 q 981 764 960 767 q 989 767 985 765 q 996 771 993 768 q 1107 778 1046 806 q 1113 775 1110 776 q 1121 771 1117 774 q 1124 766 1121 771 q 1135 751 1128 761 q 1139 735 1139 742 q 1134 731 1139 735 q 1119 721 1129 728 q 1085 718 1100 714 q 942 665 965 694 q 924 568 922 640 l 924 414 q 1022 181 924 251 q 1051 162 1036 171 q 1085 146 1067 153 q 1174 38 1149 111 q 1183 4 1197 14 q 1174 1 1178 1 q 1121 -17 1156 -17 q 1071 51 1108 -4 q 1032 92 1049 81 q 947 151 976 146 q 851 126 908 160 q 553 125 746 65 q 547 126 549 125 q 494 192 503 143 q 513 253 490 231 q 664 329 593 332 q 678 327 671 328 q 692 325 685 326 q 713 322 694 325 q 764 311 732 318 q 791 307 778 308 q 817 306 804 306 q 869 342 864 296 q 856 455 860 388 q 851 611 851 522 q 804 671 831 671 q 793 668 799 669 q 781 664 788 667 q 450 381 550 550 q 404 289 424 338 q 388 -17 356 165 q 404 -51 404 -39 m 619 163 q 789 165 728 143 q 817 182 806 171 q 819 187 817 182 q 825 201 821 192 q 817 233 826 219 q 603 253 688 296 q 596 247 600 250 q 586 238 592 243 q 564 201 554 214 q 567 199 567 199 q 617 163 567 174 l 619 163 z "},"ひ":{"ha":1389,"x_min":292,"x_max":1174,"o":"m 790 67 q 600 -22 706 -18 q 551 -18 575 -22 q 363 103 407 17 q 311 339 292 217 q 328 397 318 371 q 499 701 403 581 q 522 749 499 708 q 528 760 525 756 q 535 771 532 765 q 446 768 510 779 q 397 771 414 764 q 308 793 326 771 q 294 839 294 811 q 400 851 306 850 q 569 874 511 856 q 740 890 626 890 q 790 839 788 889 q 785 835 790 839 q 769 825 781 832 q 757 822 761 822 q 622 756 686 806 q 510 636 558 707 q 433 483 461 565 q 404 319 404 401 q 408 278 406 297 q 414 239 410 258 q 426 182 414 228 q 431 153 431 168 q 558 46 475 64 q 706 83 636 26 q 901 406 863 182 q 907 442 904 424 q 911 479 910 460 l 911 633 q 918 649 911 646 l 922 649 q 929 650 926 650 q 956 646 946 653 q 972 629 967 639 q 976 617 975 624 q 979 604 978 610 q 980 590 979 601 q 981 569 981 579 l 981 564 q 1051 314 963 439 q 1066 294 1058 304 q 1082 274 1074 285 l 1133 222 q 1169 138 1174 165 q 1153 102 1167 124 q 1117 50 1140 81 q 1075 43 1093 29 q 1065 67 1065 51 q 1007 247 1079 151 q 989 269 1004 250 q 946 324 974 289 q 790 67 890 167 z "},"ふ":{"ha":1389,"x_min":172,"x_max":1242,"o":"m 257 -19 q 192 -4 225 -35 q 172 32 175 14 q 296 238 190 131 l 300 242 q 446 272 358 300 q 593 319 529 260 l 619 346 q 647 373 635 361 q 668 392 658 385 q 685 461 685 411 q 681 746 611 606 q 703 785 692 768 q 688 842 703 826 q 678 848 683 844 q 668 854 674 851 q 514 871 547 854 l 479 904 q 496 933 479 936 q 514 922 506 931 q 580 915 528 921 q 722 899 632 908 q 766 893 746 896 q 804 888 786 890 q 838 871 836 886 q 822 819 835 835 q 718 699 785 801 q 711 569 688 653 q 769 476 731 507 q 822 461 772 461 q 1164 340 1018 460 q 1204 207 1242 282 q 1193 188 1199 197 q 1181 169 1188 179 q 1094 67 1164 136 q 1069 58 1089 57 q 1058 97 1044 60 q 1060 100 1060 99 q 1113 186 1078 118 q 1111 253 1131 225 q 1104 263 1108 258 q 1094 272 1100 267 q 900 406 1000 389 q 878 408 889 407 q 857 408 868 408 q 836 400 851 407 q 790 364 799 386 q 788 353 789 358 q 788 340 788 347 q 736 169 785 247 q 660 88 697 94 q 547 135 624 85 q 524 168 547 157 q 514 169 519 169 q 418 92 472 154 q 403 77 410 83 q 394 67 397 71 q 278 -12 361 19 q 269 -15 275 -14 q 257 -19 264 -17 m 617 169 q 669 221 656 165 q 668 289 681 263 q 594 257 638 297 q 582 239 583 244 q 596 186 568 222 q 617 169 608 172 m 307 149 q 305 118 304 135 q 308 83 306 101 q 413 181 369 92 q 428 221 428 208 q 378 239 444 239 q 307 149 315 197 z "},"へ":{"ha":1389,"x_min":169,"x_max":1229,"o":"m 1165 224 q 1093 240 1139 222 q 1083 244 1088 243 q 1076 247 1079 246 q 903 364 1024 274 q 826 417 874 382 q 711 508 778 453 q 653 554 676 536 q 540 592 581 611 q 496 550 518 578 q 374 419 485 539 q 350 394 361 406 q 329 372 339 382 q 242 336 290 321 q 174 369 218 344 q 169 403 174 372 l 183 422 q 332 456 264 401 q 382 501 351 471 q 474 600 442 578 q 522 639 506 626 q 540 653 539 651 q 621 649 568 669 q 631 645 626 647 q 640 640 635 643 q 688 605 658 626 q 757 551 717 583 q 1076 374 965 415 q 1122 358 1100 364 q 1167 346 1144 351 q 1229 268 1221 315 q 1165 224 1200 231 z "},"ほ":{"ha":1389,"x_min":257,"x_max":1172,"o":"m 385 -40 q 322 -24 364 -58 q 281 47 285 8 q 264 160 281 67 q 258 224 258 194 q 263 276 257 253 q 274 356 268 308 q 289 467 281 403 q 314 646 306 586 q 331 815 342 754 q 314 876 324 849 q 315 884 314 876 q 319 907 317 892 q 332 928 326 922 q 410 851 388 908 q 415 838 413 846 q 421 822 418 831 q 403 646 421 696 q 395 613 400 632 q 383 568 390 594 q 350 365 350 439 q 408 428 386 374 q 449 504 433 489 q 472 522 461 517 q 465 451 483 489 q 456 417 456 432 q 389 100 383 224 q 394 56 390 78 q 403 11 397 33 q 393 -32 419 -6 l 385 -40 m 1158 -40 q 1154 -42 1158 -40 q 1143 -49 1150 -44 q 1124 -40 1131 -49 q 1068 4 1100 -40 q 1049 31 1057 19 q 1036 47 1042 42 q 944 64 981 75 q 913 47 926 57 q 658 24 814 -22 q 543 83 575 49 q 528 153 497 106 q 535 163 531 158 q 543 171 539 167 q 754 224 625 250 q 842 206 808 221 q 876 378 876 274 l 876 399 q 846 476 876 471 q 827 476 838 478 q 806 471 817 474 q 772 453 775 469 q 649 504 700 456 q 647 606 608 546 q 665 628 656 618 q 670 638 668 632 q 675 653 672 644 q 719 710 693 696 q 728 714 724 713 q 736 717 732 715 q 733 635 760 681 q 718 593 718 601 q 789 540 750 542 q 836 571 817 556 q 865 601 856 586 q 872 615 868 608 q 876 628 875 621 l 876 664 q 867 819 903 797 q 701 786 831 839 q 650 789 650 772 q 683 822 653 804 q 988 914 849 917 q 1013 912 1000 913 q 1036 910 1025 911 q 1069 892 1067 908 q 1036 858 1064 861 l 1036 840 q 996 781 985 806 q 1018 751 1003 767 q 1074 721 1053 733 q 1106 699 1096 708 q 1128 651 1138 682 q 1119 639 1125 644 q 1106 628 1113 633 q 1000 576 1054 576 q 929 435 903 525 q 937 344 929 400 q 960 211 944 289 q 962 200 961 206 q 964 189 963 194 q 1013 121 964 144 q 1015 119 1014 119 q 1018 118 1017 119 q 1158 -7 1078 78 q 1171 -25 1172 -7 q 1158 -40 1169 -37 m 947 646 q 982 628 969 628 q 1018 647 985 631 q 1036 682 1042 661 q 990 704 1006 711 q 982 699 986 703 q 949 660 953 699 q 947 646 947 654 m 665 83 q 806 83 714 72 q 840 108 831 83 q 842 118 842 113 q 818 150 842 139 q 806 153 810 153 q 713 174 781 179 q 683 172 694 172 q 665 171 672 171 q 596 135 615 169 q 631 94 596 100 q 665 83 657 89 z "},"ま":{"ha":1389,"x_min":247,"x_max":1114,"o":"m 1096 -62 q 1042 -97 1060 -97 q 957 -53 1008 -97 q 935 -25 936 -35 q 835 57 876 49 q 721 28 793 63 q 490 -8 649 -8 l 471 -8 q 346 28 421 -8 q 322 125 310 65 q 346 171 328 153 q 489 204 374 225 q 542 189 521 199 q 654 192 631 174 q 686 314 686 215 q 657 453 686 431 q 525 439 621 476 q 311 439 417 413 q 251 490 261 439 q 257 546 247 518 q 259 551 257 546 q 264 568 261 557 q 274 582 268 576 q 307 579 292 600 q 311 564 311 571 q 418 493 333 496 q 632 546 519 493 q 674 614 679 571 q 671 624 672 619 q 667 635 669 629 q 614 689 665 686 l 507 689 q 438 736 464 689 q 436 739 436 738 q 435 742 436 740 q 432 790 417 768 q 471 796 446 807 q 528 765 493 796 q 560 742 547 747 q 667 814 642 744 q 686 921 669 888 q 756 975 713 972 q 793 957 792 972 q 779 899 793 942 q 775 868 775 882 q 781 831 760 840 q 795 825 783 829 q 828 814 807 821 q 885 811 869 829 q 882 779 892 797 q 824 738 869 753 q 806 731 814 733 q 793 725 799 728 q 757 678 761 710 q 756 660 756 671 q 756 635 756 650 q 762 631 756 635 q 779 621 768 628 q 787 619 783 619 q 793 618 790 618 q 900 689 875 593 q 925 724 900 714 q 935 725 929 725 q 952 719 942 722 q 975 714 963 717 q 1060 672 1032 696 q 1055 654 1060 664 q 1046 639 1050 644 l 1042 635 q 950 593 1008 618 q 891 567 917 579 q 846 546 865 556 q 764 490 778 519 q 756 404 756 469 l 756 243 q 819 118 756 169 q 833 108 826 113 q 846 99 839 104 q 1025 21 908 86 q 1056 4 1043 11 q 1078 -8 1068 -3 q 1099 -60 1114 -40 q 1096 -62 1096 -62 m 540 44 q 625 57 611 39 q 632 82 632 68 q 581 140 632 131 q 561 144 574 143 q 525 153 536 149 q 481 157 510 153 q 408 146 426 164 q 400 136 406 142 q 444 61 369 93 q 507 46 482 46 q 521 46 513 46 q 540 44 529 46 z "},"み":{"ha":1389,"x_min":194,"x_max":1178,"o":"m 663 -86 q 615 -67 635 -94 q 619 -58 615 -67 q 631 -33 624 -50 q 671 8 647 -7 q 808 168 774 110 q 826 200 818 183 q 840 233 833 217 q 888 375 888 350 q 844 422 888 404 q 810 434 839 425 q 728 458 781 443 q 651 463 674 476 q 615 421 633 449 q 464 207 571 335 q 432 167 446 185 q 408 139 418 150 q 301 94 358 89 q 290 97 296 96 q 278 101 283 99 q 200 147 215 101 q 203 196 194 168 q 354 421 238 300 q 370 438 361 428 q 390 458 379 447 q 429 471 394 458 q 447 476 439 474 q 465 478 456 478 q 668 668 590 524 q 694 720 679 688 q 728 796 710 753 q 718 825 728 815 l 710 833 q 695 831 710 833 q 650 826 681 829 q 578 796 601 815 q 444 790 517 756 q 408 815 422 801 q 371 871 372 853 q 428 871 400 899 q 544 853 490 829 q 561 860 553 856 q 578 871 569 865 q 765 928 661 925 q 821 894 804 928 q 822 853 831 875 q 817 788 821 815 q 803 740 813 760 q 746 657 786 724 q 710 608 728 626 q 722 544 689 567 q 765 533 742 533 q 825 510 788 524 q 915 478 863 496 q 976 615 972 564 q 972 665 979 640 q 968 683 972 671 q 972 721 963 711 q 1024 707 992 740 l 1028 703 q 1065 590 1093 668 q 1140 308 979 415 q 1164 289 1153 308 q 1178 271 1172 276 q 1174 265 1178 271 q 1164 246 1171 258 q 1122 233 1146 225 q 1112 245 1122 233 q 1081 281 1101 257 q 1070 297 1074 290 q 1065 308 1067 304 q 988 347 1029 361 q 953 308 963 336 q 925 253 944 289 q 908 219 915 233 q 897 196 901 206 q 845 122 879 168 q 758 13 811 76 q 731 -22 743 -6 q 710 -49 719 -37 q 663 -86 674 -81 m 301 158 q 333 158 317 151 q 433 272 390 215 q 503 383 475 328 q 503 403 508 393 q 492 417 499 413 l 483 421 q 383 359 428 393 q 307 285 339 325 q 301 278 304 282 q 296 271 299 274 q 281 214 296 268 q 278 203 279 208 q 278 196 278 199 q 301 158 278 171 z "},"む":{"ha":1389,"x_min":218,"x_max":1246,"o":"m 925 -17 q 536 -68 690 -97 q 482 -55 508 -62 q 431 -36 456 -47 q 354 19 367 -10 q 358 146 344 49 q 364 204 372 190 q 319 240 356 217 q 267 257 283 243 q 218 297 221 272 q 229 350 218 313 q 361 521 258 439 q 413 551 400 549 l 413 604 q 388 639 413 629 q 375 642 379 642 q 340 638 364 642 q 267 642 290 631 q 240 661 253 642 q 235 670 238 667 q 229 676 232 674 q 257 715 229 707 q 267 717 261 717 q 278 717 271 717 q 297 715 286 717 q 393 733 378 710 q 385 903 442 803 q 380 911 382 907 q 375 918 378 915 q 344 957 340 939 q 413 953 353 975 q 474 899 456 925 q 542 788 490 875 q 567 803 563 789 q 569 833 571 817 q 572 860 568 850 q 594 861 575 869 q 651 806 649 860 q 635 747 651 763 q 613 733 625 740 q 515 618 517 715 q 518 594 517 607 q 522 569 519 582 q 515 544 522 565 q 504 494 504 514 q 465 221 535 338 q 465 56 414 128 q 601 -1 513 -7 q 613 0 606 0 q 742 13 638 7 q 871 39 822 19 q 949 110 942 57 q 948 137 950 122 q 943 168 946 151 q 856 386 917 300 q 793 565 825 431 q 784 599 788 585 q 778 624 781 614 q 796 788 761 683 q 921 846 846 867 q 925 844 922 844 q 1199 676 1113 764 q 1218 601 1246 633 q 1209 594 1214 597 q 1199 588 1204 590 q 1180 575 1192 583 q 1153 556 1168 567 q 1035 494 1044 481 q 1033 557 1022 518 q 1035 565 1035 561 q 1035 569 1035 568 q 1056 683 1082 646 q 943 751 1033 718 q 857 747 893 785 q 832 676 832 721 q 906 422 835 518 q 999 151 990 308 l 999 128 q 963 4 1017 51 q 925 -17 944 -10 m 303 293 q 393 257 343 261 q 431 350 431 285 q 431 361 431 350 q 432 394 431 372 q 375 457 424 454 q 294 357 314 396 q 289 344 292 350 q 283 331 286 338 q 285 326 283 331 q 290 310 288 321 l 303 293 z "},"も":{"ha":1389,"x_min":332,"x_max":1107,"o":"m 774 -114 q 575 -42 658 -143 q 494 192 506 47 q 507 290 492 204 q 494 397 517 363 q 472 419 485 407 q 443 447 458 432 q 414 475 426 463 q 392 497 401 488 q 343 599 332 536 q 348 614 346 606 q 353 632 350 622 q 364 653 357 642 q 381 681 371 665 q 410 728 403 711 q 413 768 417 735 q 429 824 411 803 q 464 792 444 807 q 506 765 483 778 q 554 738 535 765 q 564 708 564 724 q 521 668 564 682 q 486 651 492 657 q 429 632 447 650 q 417 565 408 614 q 429 536 421 547 q 445 524 431 535 q 488 493 460 513 q 498 485 493 489 q 506 479 503 482 q 564 479 533 450 q 608 619 592 564 q 629 697 624 674 q 638 751 635 725 q 640 804 640 778 q 611 876 640 825 q 601 900 601 892 q 581 972 564 935 q 582 976 582 974 q 649 944 615 968 q 681 915 669 928 q 703 887 692 903 q 733 843 715 871 l 735 842 q 735 728 763 785 q 724 707 731 719 q 708 679 718 694 q 665 587 682 628 q 640 518 647 546 q 618 431 611 449 q 679 390 624 413 q 686 388 682 389 q 696 383 690 386 q 754 368 696 383 q 766 366 761 367 q 774 365 771 365 q 784 360 778 364 q 797 354 790 357 q 846 314 833 338 q 850 307 849 308 q 743 278 832 251 q 694 299 715 288 q 658 326 672 311 q 592 317 614 346 q 582 288 582 306 q 625 39 564 197 q 631 22 628 32 q 640 0 635 11 q 781 -40 700 -58 q 787 -39 783 -39 q 792 -37 790 -39 q 1008 174 976 56 q 983 307 1028 244 q 958 344 968 319 q 947 386 949 368 l 944 403 q 954 417 944 417 q 964 403 961 415 q 1079 269 1057 342 q 1086 151 1107 213 q 1083 142 1085 146 q 1079 135 1081 138 q 789 -107 1013 -11 q 774 -114 778 -112 z "},"や":{"ha":1389,"x_min":156,"x_max":1254,"o":"m 843 -1 q 796 -14 821 -24 q 785 -1 788 -10 q 743 78 750 43 q 551 426 722 249 q 540 440 546 433 q 528 451 535 446 q 411 451 469 510 l 392 431 q 197 383 278 318 q 156 431 174 403 q 290 444 261 431 q 388 525 319 457 l 392 529 q 353 626 411 569 l 351 628 q 375 744 326 700 q 411 765 389 758 q 549 785 457 785 q 586 807 583 790 q 531 864 586 833 q 528 865 529 865 q 514 888 513 879 q 528 904 519 896 q 613 900 557 926 q 649 865 644 883 q 666 840 651 863 q 707 772 681 817 q 717 756 713 763 q 724 746 721 749 q 858 776 772 746 q 883 785 874 783 q 1099 789 992 839 q 1135 771 1115 782 q 1176 746 1154 760 q 1217 549 1254 667 q 1032 389 1164 432 q 768 404 893 342 q 746 417 757 411 q 724 431 735 424 q 708 465 704 439 q 749 488 713 496 q 785 471 767 483 q 1093 496 975 361 q 1119 529 1106 508 q 1146 643 1161 576 q 1043 742 1126 724 q 981 746 1014 749 q 798 693 875 719 q 672 640 721 667 q 549 549 600 600 q 594 484 560 529 q 689 369 629 439 q 806 216 763 281 q 861 108 850 151 q 863 102 863 106 q 864 96 863 99 q 847 3 889 49 l 843 -1 m 489 608 q 564 658 510 607 q 586 685 582 676 q 556 722 596 706 q 450 726 508 739 q 419 678 417 718 q 465 614 421 633 q 477 611 471 613 q 489 608 483 610 z "},"ゆ":{"ha":1389,"x_min":253,"x_max":1200,"o":"m 746 -101 q 700 -97 728 -114 q 692 -60 678 -78 q 764 26 736 -11 q 801 90 792 64 q 746 183 800 181 q 650 240 686 215 q 599 278 614 264 q 519 419 564 314 q 513 438 517 426 q 503 463 508 449 q 372 129 408 317 q 356 90 371 93 q 321 117 331 90 q 318 129 318 125 q 272 238 292 157 q 267 261 269 251 q 263 276 265 271 q 274 458 253 306 q 282 799 304 685 q 269 821 267 806 q 296 821 274 838 q 307 811 301 817 q 318 799 313 806 q 336 432 403 714 q 324 376 328 396 q 318 351 319 356 q 343 317 317 321 q 372 332 368 314 q 419 432 388 372 q 499 569 450 492 q 615 799 589 714 q 675 897 615 842 q 697 919 689 911 q 708 929 706 926 q 857 910 803 988 q 867 881 857 890 l 875 872 q 969 767 875 807 q 979 764 975 765 q 986 761 983 763 q 1056 736 1013 761 q 1081 724 1071 728 q 1172 597 1142 692 q 1175 444 1200 508 q 1081 299 1119 338 q 1053 276 1067 286 q 1025 258 1040 265 q 890 119 942 214 q 882 105 886 113 q 875 90 878 97 q 746 -101 846 -24 m 646 728 q 653 704 649 713 q 758 746 696 704 q 782 761 775 757 q 814 792 804 757 q 801 854 825 832 q 797 872 801 863 q 786 886 792 881 l 782 890 q 707 850 758 906 q 646 728 644 781 m 913 285 q 967 292 933 263 q 986 315 979 303 q 1097 529 1086 389 q 1099 543 1099 536 q 1099 556 1099 550 q 1039 688 1099 646 q 1010 706 1026 697 q 971 724 993 714 q 913 686 915 722 q 946 533 946 635 q 929 358 946 432 l 913 285 m 765 240 q 828 247 803 218 q 838 276 838 258 q 856 624 896 428 q 848 662 853 642 q 838 704 843 682 q 678 643 764 704 q 647 620 657 628 q 635 611 636 613 q 560 463 560 564 q 747 244 585 279 q 757 242 753 243 q 765 240 761 242 z "},"よ":{"ha":1389,"x_min":254,"x_max":1117,"o":"m 1086 -67 q 1031 -43 1058 -71 q 1006 -22 1025 -37 q 951 21 986 -6 q 908 58 926 39 q 611 93 756 150 q 597 86 604 90 q 582 79 589 82 q 353 69 493 24 q 320 82 339 75 q 276 99 301 89 q 263 169 254 121 q 276 201 267 192 q 460 263 369 263 q 487 258 467 263 q 542 247 507 254 q 563 243 553 244 q 582 242 574 242 q 707 282 679 242 q 725 364 725 308 q 697 550 742 431 q 688 575 692 565 q 683 589 685 585 q 663 781 653 710 q 683 854 669 819 q 692 913 699 900 q 622 956 682 925 q 594 974 600 956 q 603 996 593 986 q 686 978 631 1011 q 725 956 714 960 q 778 890 774 924 q 765 813 781 867 q 751 771 765 807 q 744 732 744 750 q 774 679 744 700 q 806 669 788 669 q 919 693 822 686 q 1011 672 1018 700 q 1010 669 1010 671 q 957 640 997 644 q 908 629 925 636 q 865 617 906 629 q 826 610 842 610 q 786 528 786 567 q 807 304 815 376 q 786 221 801 261 q 814 168 786 185 q 826 161 822 163 q 1050 38 886 121 q 1115 -31 1117 10 q 1086 -67 1115 -60 m 372 136 q 378 119 378 126 q 540 140 482 119 q 572 157 575 140 q 515 196 569 182 q 499 199 507 199 q 481 201 490 200 q 401 188 451 207 q 376 164 374 176 q 378 161 378 163 q 372 136 365 149 z "},"ら":{"ha":1389,"x_min":382,"x_max":1083,"o":"m 797 853 q 714 875 728 844 q 708 903 708 886 q 690 928 703 913 q 653 963 676 943 q 601 1053 603 1010 q 697 1019 650 1038 q 788 979 743 1001 q 868 903 865 944 q 838 858 868 872 q 815 854 825 854 q 809 854 814 854 q 797 853 804 854 m 889 29 q 650 -83 736 -69 q 579 -53 610 -83 l 568 -42 q 715 6 639 -31 q 874 101 792 42 q 976 286 1006 200 q 804 354 929 356 q 768 352 786 354 q 732 347 750 350 q 568 183 631 281 q 513 157 546 142 q 486 183 496 165 q 444 471 418 354 q 406 697 481 619 q 438 811 382 763 q 486 840 461 831 q 490 840 486 840 q 500 836 493 839 q 507 819 507 829 q 514 657 486 760 q 535 511 542 557 q 526 471 532 489 q 546 307 526 368 q 633 346 589 307 q 667 372 653 361 q 689 389 682 383 q 1003 357 825 471 q 1011 352 1007 354 q 1018 347 1015 350 q 1064 211 1083 306 q 1055 181 1061 196 q 1042 150 1049 165 q 889 29 1021 113 z "},"る":{"ha":1389,"x_min":299,"x_max":1096,"o":"m 793 -44 q 715 -31 749 -46 q 640 15 697 -11 q 590 50 607 33 q 558 136 549 74 q 571 174 563 157 q 671 249 611 235 q 738 235 711 258 q 817 158 782 214 q 838 92 840 119 q 860 75 847 82 q 879 50 876 61 q 986 156 954 68 q 1003 215 994 182 q 965 333 1022 272 q 953 346 960 339 q 940 360 947 353 q 696 400 838 431 q 447 215 571 375 q 433 176 442 206 q 386 92 415 121 q 347 71 383 64 q 301 107 310 78 q 304 133 299 121 q 386 360 307 235 q 514 554 458 474 q 608 682 569 635 q 738 811 674 757 q 736 869 774 851 q 696 874 711 885 q 550 811 628 851 q 415 838 463 790 q 386 874 403 850 q 738 956 599 872 q 842 924 803 963 q 831 821 890 878 q 819 811 824 814 q 762 753 808 801 q 635 617 715 706 q 563 540 585 563 q 553 522 560 533 q 536 494 547 510 q 519 375 489 422 q 501 369 499 372 q 517 371 503 365 q 549 399 532 376 l 550 400 q 810 463 650 461 l 858 463 q 1049 350 988 444 q 1083 233 1082 296 q 990 44 1096 133 q 793 -44 896 -36 m 715 31 q 765 43 749 14 q 757 113 779 74 q 706 175 746 167 q 632 133 661 183 q 678 57 632 93 q 694 44 685 51 q 715 31 704 38 z "},"ろ":{"ha":1389,"x_min":269,"x_max":1115,"o":"m 733 -46 q 665 -53 708 -64 q 638 -26 638 -42 q 742 60 643 3 q 849 106 801 93 q 965 376 1047 243 q 940 409 954 393 q 908 439 926 425 q 685 471 776 501 q 673 467 679 469 q 660 461 667 464 q 493 353 529 382 q 386 208 414 286 q 361 138 386 165 q 288 144 332 107 q 313 265 269 199 q 333 297 332 296 q 367 358 347 321 q 410 443 386 394 q 507 620 463 544 q 588 747 551 696 q 625 819 619 779 q 626 826 626 822 q 550 872 621 851 q 458 917 476 894 q 449 947 449 931 q 729 974 583 940 q 889 992 826 996 q 876 960 900 979 q 816 910 839 929 q 785 882 793 890 q 724 815 754 851 q 663 739 693 779 q 615 658 649 711 q 528 526 581 604 q 522 516 525 521 q 515 507 518 511 l 513 467 q 592 494 522 454 q 768 538 651 538 l 785 538 q 988 444 889 538 q 1005 428 994 438 q 1026 407 1015 418 q 1076 210 1115 297 q 914 43 1043 138 q 797 -15 889 22 q 733 -46 756 -33 z "},"わ":{"ha":1389,"x_min":204,"x_max":1208,"o":"m 506 0 q 474 3 488 -18 q 469 18 469 10 q 440 125 451 44 q 414 219 429 186 q 324 144 365 207 q 285 90 293 99 q 272 72 285 75 l 268 72 q 235 97 246 72 q 232 110 232 106 q 272 254 232 186 q 278 264 275 260 q 285 274 282 268 q 433 568 379 432 q 357 572 393 596 q 333 558 342 563 q 322 551 325 553 q 247 547 271 533 q 214 585 233 558 l 206 601 q 214 624 204 614 q 217 626 214 624 q 228 631 221 628 q 250 624 239 632 q 360 642 311 594 q 475 738 453 674 q 488 843 488 775 q 481 862 485 850 q 472 888 476 874 q 450 935 463 924 q 469 972 453 971 l 506 972 q 561 881 558 942 q 588 750 561 793 q 615 717 599 733 q 604 650 639 690 q 597 642 601 646 q 556 588 592 632 q 537 560 544 574 q 524 532 529 546 q 543 457 526 474 q 599 488 564 457 q 635 513 619 506 q 908 696 733 610 q 999 711 968 728 q 1018 696 1010 706 q 1149 569 1114 625 q 1183 476 1175 526 q 1113 274 1208 375 q 874 54 990 126 q 808 42 835 19 q 799 54 804 46 q 801 86 783 72 q 818 90 810 90 q 981 233 886 133 q 1014 269 1000 254 q 1038 293 1028 283 q 1075 551 1104 388 q 990 650 1058 628 q 892 642 939 664 q 720 525 807 593 q 543 368 633 457 q 506 257 506 322 q 509 206 506 249 q 519 86 513 164 q 524 18 524 47 q 506 0 511 1 z "},"を":{"ha":1389,"x_min":272,"x_max":1176,"o":"m 1057 -31 q 983 -86 1038 -85 l 763 -86 q 581 -49 635 -83 q 526 171 444 33 q 617 279 549 211 q 672 425 672 335 q 617 608 669 607 q 508 540 568 608 q 454 443 464 490 q 458 410 454 431 q 454 353 464 375 q 429 353 453 339 q 397 407 396 374 q 397 646 360 564 q 326 792 426 763 q 282 846 297 813 q 299 869 272 871 q 313 867 306 868 q 326 864 319 867 q 363 850 333 864 q 379 846 374 846 q 415 867 410 846 q 417 875 417 871 q 417 883 417 879 q 410 956 425 906 q 417 1029 397 999 q 496 936 467 1013 q 500 924 497 933 q 508 901 503 915 q 597 849 547 825 q 635 883 617 858 q 744 921 682 950 q 794 893 778 921 q 797 888 796 890 q 800 883 799 886 q 758 831 800 846 q 751 828 754 829 q 744 828 747 828 q 719 819 735 825 q 683 807 704 814 q 623 788 649 796 q 581 772 597 779 q 511 751 519 772 q 508 738 508 743 q 489 664 489 715 q 546 664 518 639 q 682 654 614 710 q 692 646 686 651 q 731 568 726 574 q 746 549 738 557 q 763 536 754 542 q 821 604 803 549 q 838 646 833 638 q 963 753 917 725 q 981 763 972 758 q 1000 772 990 767 q 1139 760 1065 806 q 1146 754 1142 758 q 1171 721 1163 754 q 1165 682 1176 696 q 1138 654 1151 668 q 1110 626 1124 640 q 932 486 1064 581 q 899 462 914 472 q 874 443 885 451 q 776 357 797 386 q 744 243 744 310 q 728 151 743 189 q 672 97 726 100 q 651 136 646 111 q 653 146 653 142 q 654 151 654 150 q 636 186 654 181 q 617 189 625 189 q 611 187 617 189 q 594 182 606 185 q 587 176 590 179 q 581 171 583 174 q 654 -12 508 44 q 758 -24 693 -26 q 914 -3 824 -21 q 965 6 956 6 q 1040 -4 994 19 q 1057 -31 1067 -19 m 838 500 q 1024 628 858 493 q 1066 661 1049 647 q 1093 682 1083 675 q 1060 718 1110 714 l 1057 718 q 838 518 896 690 l 838 500 z "},"ん":{"ha":1389,"x_min":192,"x_max":1178,"o":"m 490 447 q 504 432 479 436 q 522 431 515 431 q 528 431 528 431 q 583 482 569 474 q 668 482 622 503 q 721 364 719 465 l 721 165 q 826 25 736 51 q 968 40 894 4 q 1067 275 1065 119 q 1088 439 1067 414 q 1108 447 1099 450 q 1065 54 1178 236 q 1060 47 1063 51 q 1056 40 1058 43 q 829 -37 957 -54 q 778 -25 803 -33 q 644 89 688 7 q 632 218 610 158 q 649 306 635 289 q 626 432 675 436 q 561 397 603 431 l 522 375 q 283 54 329 215 q 281 47 282 51 q 279 40 281 43 q 256 18 279 25 q 226 24 236 14 q 196 58 210 24 q 192 76 192 69 q 279 272 224 183 q 381 406 318 329 q 529 579 443 482 q 590 647 564 618 q 632 694 615 675 q 710 828 697 786 q 704 925 722 878 q 721 960 706 957 q 726 958 721 960 q 740 954 731 957 q 749 947 744 951 q 756 940 753 943 q 797 801 831 868 q 756 747 783 775 q 628 603 736 728 q 593 563 610 581 q 561 531 576 546 q 518 481 553 513 q 490 447 497 460 z "},"ア":{"ha":1389,"x_min":144,"x_max":1133,"o":"m 436 28 q 411 8 425 13 q 389 6 397 3 l 382 8 q 368 28 365 8 q 382 44 372 43 q 507 144 476 110 q 519 159 514 151 q 529 174 524 167 q 636 368 613 286 q 638 375 636 374 q 601 651 699 528 l 657 651 q 710 619 669 651 q 785 596 754 586 q 950 760 894 651 q 931 796 946 793 q 693 796 800 824 q 419 725 493 758 q 201 738 329 667 q 185 748 193 743 q 167 758 176 753 q 147 783 144 767 q 163 796 149 792 q 251 792 196 796 q 364 796 331 786 q 441 811 368 797 q 657 853 514 825 q 1060 835 822 899 q 1113 796 1083 832 q 1121 753 1133 778 q 1060 725 1106 726 q 876 596 946 667 q 749 438 792 535 q 739 417 743 428 q 731 394 735 406 q 447 36 654 186 q 442 33 444 35 q 436 28 439 31 z "},"イ":{"ha":1389,"x_min":238,"x_max":940,"o":"m 740 -106 q 689 -65 704 -122 q 688 -61 688 -64 l 688 501 q 631 542 685 542 q 592 517 624 535 q 571 501 581 511 q 465 401 513 444 q 378 328 417 357 q 281 269 346 271 q 257 303 238 274 q 259 306 258 304 q 261 308 260 307 q 590 600 460 442 q 657 675 611 628 q 749 785 713 736 q 806 871 786 835 q 843 969 831 918 q 867 981 843 992 q 875 976 871 979 q 883 969 879 972 q 940 931 935 964 q 904 854 940 894 l 903 853 q 865 804 888 833 q 814 736 843 775 q 726 619 756 660 q 806 539 794 576 q 794 469 814 508 q 783 14 757 200 q 775 -28 783 6 q 767 -69 767 -58 q 740 -106 764 -93 z "},"ウ":{"ha":1389,"x_min":299,"x_max":1136,"o":"m 489 -82 q 417 -119 451 -115 q 393 -82 393 -104 q 879 369 636 40 q 903 401 890 385 q 926 433 915 417 q 982 643 982 522 q 926 700 981 697 q 564 663 785 700 q 479 611 493 643 q 469 547 469 590 q 474 507 469 535 q 469 414 482 440 q 424 385 457 383 q 393 414 394 389 q 383 478 393 435 q 376 520 378 503 q 374 547 374 538 q 333 704 374 615 q 331 710 332 707 q 328 714 329 713 q 333 749 299 743 q 378 742 361 751 q 540 704 469 694 q 568 709 547 706 q 621 719 589 713 q 679 814 676 753 q 660 936 679 893 q 651 951 656 943 q 640 968 646 960 q 643 986 633 974 q 697 986 663 1003 q 760 914 744 976 q 774 872 768 878 q 801 764 789 779 q 886 751 818 743 q 903 754 893 753 q 926 757 913 756 q 1022 776 965 776 q 1111 735 1082 776 q 1097 663 1136 693 q 1022 471 1071 544 q 489 -82 804 108 z "},"エ":{"ha":1389,"x_min":132,"x_max":1236,"o":"m 329 154 q 201 154 260 133 q 135 211 135 182 q 178 236 132 239 q 198 233 188 235 q 219 229 208 232 q 339 225 276 201 q 349 229 343 226 q 553 267 506 267 q 657 400 628 282 q 664 439 663 422 q 664 469 665 456 q 635 596 650 575 q 542 608 615 624 q 521 604 532 607 q 497 599 510 601 q 361 639 425 599 q 329 690 322 665 q 700 729 517 665 q 804 749 747 740 q 928 764 861 758 q 1014 739 981 771 q 1017 692 1038 715 q 1003 687 1017 692 q 964 671 990 682 q 922 672 932 663 q 757 672 838 699 q 751 667 754 671 q 743 661 747 664 q 719 617 722 642 q 738 378 768 494 q 793 303 746 307 l 1035 303 q 1053 304 1042 303 q 1079 308 1064 306 q 1167 308 1144 321 q 1225 250 1204 290 q 1228 214 1236 224 q 1163 217 1207 193 q 1152 223 1157 219 q 1144 229 1147 226 q 817 238 1024 265 q 757 229 800 236 q 329 154 461 194 z "},"オ":{"ha":1389,"x_min":250,"x_max":1229,"o":"m 900 -14 q 851 -39 886 -51 q 819 -10 829 -31 q 707 65 776 35 l 669 101 q 706 125 669 132 q 720 123 715 124 q 726 122 725 122 q 838 138 814 49 q 839 140 839 139 l 839 160 q 836 292 831 200 q 819 401 839 361 q 693 322 754 401 q 683 307 689 317 q 667 283 676 297 q 647 254 656 267 q 632 235 639 242 q 403 56 557 158 q 360 28 376 39 q 333 10 343 17 q 279 3 308 -7 q 275 33 250 13 q 285 40 281 36 q 296 47 290 44 q 672 388 511 161 q 733 478 700 428 q 800 589 765 528 q 825 639 800 600 q 833 653 829 646 q 839 665 836 660 q 679 624 763 643 q 503 589 596 604 q 322 640 397 567 l 315 647 q 322 682 294 675 q 333 683 329 682 q 657 683 468 638 q 691 692 671 686 q 738 704 711 697 q 800 721 779 715 q 858 793 857 740 q 839 851 858 821 q 800 889 817 876 q 757 931 793 903 q 743 981 724 957 l 746 983 q 815 975 771 1011 q 857 946 849 950 q 881 935 865 940 q 956 881 946 910 q 951 833 961 858 q 972 783 938 799 q 1065 783 1007 769 q 1218 771 1188 810 q 1222 731 1229 754 q 1139 708 1211 710 l 1065 708 q 931 608 933 699 q 939 254 921 565 q 944 163 942 199 q 944 108 946 126 q 903 -8 943 53 q 900 -14 900 -14 z "},"カ":{"ha":1389,"x_min":208,"x_max":1124,"o":"m 279 -69 q 229 -62 250 -83 q 240 -12 208 -40 q 619 517 456 157 q 561 572 642 571 q 540 569 556 572 q 501 558 525 565 q 467 554 483 554 q 399 561 419 554 q 322 619 363 578 q 332 653 306 639 q 356 658 344 661 q 543 629 468 629 q 675 688 633 629 q 713 763 694 715 q 725 860 724 807 q 719 978 726 914 q 717 1001 718 989 q 713 1026 715 1013 q 814 979 794 1013 q 826 914 826 957 q 788 706 826 856 q 869 704 813 693 q 877 706 874 706 q 882 706 881 706 q 919 710 893 706 q 983 721 944 714 q 1001 723 993 722 q 1014 724 1008 724 q 1089 696 1057 724 q 1083 614 1124 663 q 938 156 1057 404 q 928 137 932 146 q 919 119 924 128 q 899 83 917 117 q 882 63 890 71 q 769 25 839 25 q 675 82 694 61 q 668 88 672 85 q 657 97 664 92 q 635 136 626 122 q 638 139 638 139 q 672 151 650 161 q 713 139 700 139 q 824 117 785 89 l 826 119 q 864 175 863 157 q 935 377 907 278 q 978 572 964 476 q 936 644 978 635 q 903 649 922 649 q 825 633 893 649 q 788 629 803 629 q 777 618 783 625 q 761 601 771 611 l 732 572 q 619 385 689 488 q 413 56 564 239 q 372 7 399 38 q 322 -40 346 -21 q 279 -69 299 -60 z "},"キ":{"ha":1389,"x_min":218,"x_max":1115,"o":"m 893 -8 q 825 -26 876 -90 q 793 58 793 42 q 725 299 761 142 q 681 369 711 361 q 622 365 660 374 q 599 358 613 363 q 567 351 585 354 q 504 331 524 342 q 333 317 424 275 q 302 334 324 322 q 249 365 281 346 q 228 418 218 392 q 289 424 240 447 q 294 420 292 422 q 300 417 297 418 q 499 394 381 360 q 528 403 510 397 q 571 418 547 408 q 629 438 604 429 q 672 450 654 446 q 657 569 657 488 q 626 615 657 585 l 622 619 q 601 614 614 618 q 568 604 588 610 q 401 585 457 571 q 358 601 376 592 q 314 646 321 622 q 335 661 307 661 q 347 661 342 664 q 375 659 354 661 q 431 654 396 657 q 442 653 438 653 q 453 653 447 653 q 601 689 576 653 q 590 850 628 724 q 589 857 590 856 q 553 932 589 879 q 543 947 547 940 q 536 958 539 953 q 521 971 525 958 q 540 990 517 983 q 554 992 547 992 q 571 993 561 993 q 580 990 574 992 q 594 986 586 989 q 675 942 664 967 q 672 892 683 919 q 685 839 664 871 q 690 824 690 829 q 717 739 703 751 q 807 736 735 726 q 815 738 810 738 q 825 739 819 738 q 951 775 904 775 q 1007 757 981 775 q 1017 743 1015 750 q 992 710 1017 721 q 979 699 982 704 q 949 696 971 699 q 892 688 928 693 q 818 676 847 681 q 775 672 789 672 q 721 629 726 653 q 725 569 717 607 q 738 531 725 567 q 740 518 740 522 q 825 467 767 469 q 882 481 840 472 q 979 514 953 496 q 1099 510 1049 560 q 1115 481 1114 492 q 1060 451 1115 461 q 1046 450 1054 450 q 929 429 1032 444 q 876 417 896 422 q 801 375 806 417 q 801 349 800 365 q 808 314 803 333 q 854 160 815 285 q 867 115 861 136 q 876 76 874 94 q 883 47 876 72 q 891 15 889 29 q 893 -8 893 1 z "},"ク":{"ha":1389,"x_min":268,"x_max":1083,"o":"m 322 -19 q 290 0 299 -22 q 308 29 281 22 q 315 31 311 31 q 322 31 319 31 q 911 653 668 207 q 917 665 914 658 q 922 682 919 672 q 944 719 932 707 q 921 751 944 740 q 911 753 917 753 q 608 686 710 719 q 572 654 597 686 q 563 644 567 649 q 557 636 560 639 q 542 617 551 631 q 519 581 533 603 q 317 335 369 363 q 306 331 308 332 q 271 346 268 322 q 283 369 274 364 q 514 688 454 578 q 600 942 582 813 q 671 913 661 929 q 676 778 688 890 q 675 771 675 775 q 822 792 693 775 q 862 799 844 794 q 893 806 879 803 q 1011 788 951 821 q 1063 722 1083 753 q 1026 703 1051 711 q 992 650 1013 682 q 944 575 972 618 q 704 239 796 343 q 642 173 674 204 q 578 114 610 142 q 363 -10 446 15 q 342 -15 353 -12 q 322 -19 332 -18 z "},"ケ":{"ha":1389,"x_min":250,"x_max":1153,"o":"m 383 -64 q 338 -47 344 -68 q 358 -21 331 -28 q 365 -19 361 -19 q 372 -19 369 -19 q 515 89 457 43 q 603 164 572 135 q 664 228 635 196 q 718 294 693 261 q 806 468 786 399 q 761 578 824 549 q 701 590 736 590 q 685 591 696 590 q 661 593 675 592 q 528 574 568 599 q 458 496 494 563 q 438 458 447 474 q 424 435 429 442 q 406 414 421 432 q 365 363 392 396 q 336 329 351 344 q 274 313 311 311 q 250 329 254 315 q 561 921 538 667 q 628 929 585 944 q 667 921 656 921 q 700 872 711 897 q 694 862 697 867 q 685 851 690 857 q 669 831 676 843 q 650 815 660 818 q 642 797 647 808 q 629 772 636 786 q 607 689 596 713 q 615 676 610 683 q 715 651 631 622 l 736 660 q 849 668 785 660 q 996 694 914 676 q 1138 672 1088 735 q 1153 643 1150 657 q 1140 625 1153 625 l 1136 624 l 910 624 q 872 561 856 601 q 874 558 874 560 q 875 554 874 556 q 875 399 926 478 q 672 140 810 283 q 383 -64 501 -35 z "},"コ":{"ha":1389,"x_min":272,"x_max":1085,"o":"m 454 175 q 360 193 397 164 q 347 205 354 197 q 328 222 339 213 q 310 240 318 232 q 294 253 301 247 q 304 275 272 275 l 311 275 q 661 274 451 242 q 814 295 756 288 q 892 304 872 303 q 928 346 913 314 q 939 368 935 361 q 971 576 958 494 q 988 693 983 657 q 594 632 765 693 l 582 628 q 501 594 539 581 q 482 607 493 600 q 457 621 471 614 q 383 681 407 649 q 393 708 368 704 l 404 708 q 585 700 476 679 q 613 704 597 703 q 632 708 625 706 q 811 732 735 724 q 939 740 888 740 q 1038 724 1004 740 q 1083 679 1072 724 q 1085 669 1085 674 q 1085 660 1085 665 q 1068 610 1068 642 q 1028 301 1028 481 q 1053 249 1028 289 q 1058 217 1064 226 q 940 218 1058 200 q 789 228 819 235 q 668 211 751 222 q 542 193 596 201 q 454 175 489 185 z "},"サ":{"ha":1389,"x_min":232,"x_max":1213,"o":"m 403 -85 q 347 -93 372 -111 q 344 -69 331 -79 q 349 -67 347 -67 q 419 -18 357 -64 q 440 -5 431 -11 q 456 4 449 1 q 792 419 710 163 q 817 529 811 476 q 801 621 832 607 q 726 618 779 629 q 672 600 708 600 q 621 551 632 600 q 619 540 619 546 q 618 529 618 535 q 618 525 618 528 q 619 517 618 522 q 546 364 632 392 q 521 393 524 363 q 525 439 521 406 q 529 474 529 464 q 478 549 507 540 q 439 546 461 553 q 276 582 363 524 q 257 594 269 589 q 236 625 232 608 q 238 631 238 628 q 240 636 239 633 q 294 636 240 664 q 440 614 392 603 q 456 618 451 617 q 529 708 526 619 q 508 819 529 722 q 510 889 496 879 q 604 839 585 868 q 618 779 618 817 q 636 708 621 726 q 660 675 636 686 q 672 672 668 672 q 778 692 719 649 q 799 708 790 700 q 815 733 814 708 q 817 739 817 736 q 817 743 817 742 q 824 849 828 806 q 811 924 819 892 q 791 979 801 960 q 799 996 781 999 q 901 953 889 967 q 924 869 924 932 l 924 779 q 956 746 924 757 q 967 744 961 744 q 979 743 974 743 q 1075 731 994 743 q 1122 726 1100 726 q 1200 696 1186 726 q 1171 660 1213 672 q 1122 654 1153 654 q 1097 658 1119 654 q 1031 668 1074 661 q 996 672 1008 672 q 987 668 993 671 q 974 663 981 665 q 928 626 935 649 q 924 600 924 614 q 911 540 924 589 q 907 510 907 524 q 428 -74 803 100 q 415 -79 421 -76 q 403 -85 408 -82 z "},"シ":{"ha":1389,"x_min":256,"x_max":1214,"o":"m 656 693 q 617 696 628 686 q 578 715 603 703 q 519 744 554 728 q 382 815 428 790 q 385 836 365 824 q 403 840 394 842 q 638 765 529 840 q 647 758 643 763 q 656 751 651 754 q 671 696 671 729 q 665 695 669 696 q 656 693 661 694 m 476 40 q 306 58 410 -10 q 292 67 300 61 q 274 81 285 74 q 269 110 256 93 q 293 117 279 119 q 575 193 421 81 q 595 208 585 200 q 617 225 606 215 q 1015 569 810 368 q 1131 732 1063 617 q 1158 774 1146 756 q 1179 807 1169 793 q 1206 738 1214 768 q 1201 727 1204 732 q 1196 715 1199 722 q 1075 538 1193 676 q 884 336 981 424 q 689 185 788 249 q 662 167 675 175 q 636 153 649 160 q 597 126 621 143 q 542 88 574 110 q 503 60 519 72 q 476 40 488 47 m 554 435 q 526 425 543 425 l 510 425 q 465 453 500 432 q 372 506 431 474 q 322 537 343 522 q 288 563 301 551 q 286 585 272 574 q 293 589 292 588 q 528 510 424 589 q 548 494 539 503 q 564 479 557 486 q 554 435 575 453 z "},"ス":{"ha":1389,"x_min":221,"x_max":1122,"o":"m 306 75 q 236 56 272 42 q 233 57 235 57 q 231 58 232 57 q 224 82 221 58 q 247 108 228 106 q 792 600 538 261 q 817 633 804 617 q 842 668 829 650 q 846 684 842 675 q 854 697 850 693 l 858 703 q 843 758 874 735 q 826 767 833 765 q 726 750 760 767 q 588 704 715 749 q 541 690 563 696 q 500 681 519 683 q 417 706 471 663 q 381 750 389 729 q 404 778 381 778 q 429 767 421 775 q 540 764 463 756 q 569 766 556 765 q 593 767 582 767 q 735 815 671 799 q 851 831 800 832 q 872 828 863 829 q 889 825 882 828 q 940 686 1031 785 q 932 676 936 681 q 924 668 928 672 q 901 639 914 657 q 871 597 889 621 q 815 522 839 554 q 775 469 790 490 q 806 450 788 461 q 849 424 825 439 q 1056 274 994 333 q 1119 208 1104 249 q 1122 199 1121 203 q 1122 190 1122 194 q 1106 156 1121 158 q 1022 174 1057 124 q 1015 187 1019 179 q 1003 204 1010 194 q 996 215 999 211 q 992 222 993 219 q 842 372 924 331 q 732 396 767 408 q 644 325 706 386 q 338 92 528 190 q 321 83 329 88 q 306 75 313 79 z "},"セ":{"ha":1389,"x_min":129,"x_max":1147,"o":"m 1078 53 q 767 114 939 36 q 731 131 744 124 q 713 144 718 139 q 511 439 486 229 q 493 493 508 475 q 435 500 472 514 q 419 493 431 499 q 196 531 315 449 q 175 547 185 539 q 156 564 165 556 q 143 619 129 590 q 176 628 156 647 l 182 622 q 244 587 221 600 q 274 567 267 574 q 464 572 381 528 q 511 622 500 593 q 493 842 543 746 q 484 855 490 844 q 468 881 478 865 q 456 897 463 892 l 474 915 q 601 843 554 915 q 621 804 614 824 q 620 788 621 797 q 618 764 619 778 q 635 646 611 686 q 637 643 636 644 q 639 640 638 642 q 715 649 669 640 q 825 676 761 658 q 865 688 847 683 q 896 696 882 693 q 1086 699 997 729 q 1138 644 1147 678 q 1133 636 1136 639 q 1110 601 1119 614 q 1097 585 1101 589 q 804 383 882 444 q 801 385 804 383 q 790 392 797 388 q 786 421 781 407 q 844 467 808 436 q 932 547 881 499 l 944 560 q 972 613 979 589 q 968 622 971 617 q 914 622 942 650 q 803 597 863 611 q 676 567 744 583 q 604 506 611 567 q 603 493 603 501 q 598 481 603 485 q 589 475 593 476 l 583 475 q 613 290 583 339 q 747 190 642 240 q 757 187 753 189 q 767 182 761 185 q 1004 126 900 126 q 1122 103 1093 135 q 1128 81 1131 93 q 1078 53 1118 60 z "},"ソ":{"ha":1389,"x_min":347,"x_max":1113,"o":"m 396 -11 q 356 -11 368 -22 q 363 25 347 13 q 376 35 368 29 q 394 46 383 40 q 858 496 672 164 q 897 567 878 531 q 933 644 915 604 q 963 753 953 704 q 972 838 972 801 q 986 896 943 897 l 992 896 q 1088 835 1056 892 q 1088 761 1113 786 q 1068 704 1068 739 q 504 43 864 232 q 468 24 486 33 q 432 8 450 15 q 423 3 432 8 q 396 -11 414 -1 m 547 568 q 513 560 531 551 q 483 589 496 569 l 471 607 q 408 735 460 650 q 375 800 383 775 q 389 796 379 797 q 405 792 399 794 q 417 786 411 789 q 475 742 453 760 q 507 714 497 725 q 568 625 549 672 q 547 568 565 593 z "},"タ":{"ha":1389,"x_min":221,"x_max":1108,"o":"m 392 3 q 249 -40 288 -54 q 244 -37 246 -39 q 239 -35 242 -36 q 297 25 221 -11 q 318 34 306 28 q 349 47 331 40 q 385 63 371 57 q 408 74 400 69 q 547 167 479 113 q 679 292 615 222 q 697 403 718 354 q 633 486 688 424 q 596 547 599 528 q 678 538 631 574 q 702 520 693 526 q 714 511 711 514 q 758 475 722 507 q 800 456 782 456 q 963 701 867 529 l 963 703 l 965 706 l 965 707 l 967 708 l 967 710 l 968 711 q 967 751 985 729 q 935 765 953 764 q 689 740 813 765 q 644 731 661 736 q 535 618 618 725 q 476 547 493 567 q 458 526 469 539 q 433 497 447 514 q 342 403 374 426 q 285 394 304 378 q 301 436 267 411 q 303 438 303 438 q 306 439 304 438 q 406 542 338 461 q 426 566 417 556 q 442 583 435 576 q 568 846 543 754 q 574 870 571 858 q 578 892 576 882 q 578 897 578 894 q 576 906 578 900 q 600 964 574 963 q 668 914 653 956 q 664 875 674 893 q 660 854 664 869 q 664 801 654 815 q 815 821 719 783 q 1033 817 943 854 q 1050 808 1044 813 q 1090 740 1108 788 q 1076 717 1085 729 q 1054 693 1068 704 q 800 311 946 467 q 647 176 711 231 q 542 92 582 121 q 465 42 503 64 q 392 3 428 19 z "},"チ":{"ha":1389,"x_min":214,"x_max":1242,"o":"m 422 -33 q 360 -57 396 -64 q 346 -32 333 -51 q 365 -14 351 -24 q 461 63 408 10 q 649 308 565 133 q 667 349 656 324 q 693 408 678 374 q 672 486 710 465 q 617 488 650 500 q 497 463 600 482 q 467 456 482 460 q 442 449 453 451 q 319 453 379 415 q 307 461 314 456 q 289 474 300 467 q 277 483 282 479 q 269 488 272 486 q 236 508 253 490 q 256 531 214 533 q 271 530 263 531 q 289 528 279 529 q 364 524 311 525 q 499 526 417 524 q 531 528 517 528 q 558 528 546 528 q 704 588 679 543 q 694 753 726 629 l 678 797 q 646 790 678 797 q 550 768 614 783 q 540 764 542 765 q 461 746 521 746 q 415 769 431 746 q 446 801 396 794 q 462 803 453 803 q 481 804 471 804 q 814 928 707 868 q 841 943 828 935 q 865 958 854 951 q 940 940 897 974 q 960 901 972 914 q 931 888 950 896 q 883 869 913 881 q 806 836 822 846 q 806 817 783 829 q 831 789 832 799 q 811 769 826 778 q 817 647 799 699 q 865 604 817 608 l 883 604 q 971 618 922 614 q 1078 622 1019 622 q 1231 604 1179 654 q 1233 598 1231 604 q 1238 579 1235 592 q 1140 544 1242 526 q 1136 546 1139 546 q 1008 549 1097 558 q 981 547 993 547 q 960 546 969 546 q 793 429 825 546 l 789 408 q 493 22 728 210 q 460 -6 478 8 q 422 -33 442 -19 z "},"ツ":{"ha":1389,"x_min":274,"x_max":1079,"o":"m 669 615 q 651 601 657 607 q 599 639 613 608 q 595 662 599 643 q 585 713 592 681 q 581 746 581 732 q 525 868 529 846 q 526 890 522 885 q 604 842 553 896 q 688 639 688 749 q 669 615 688 625 m 482 31 q 418 8 443 8 q 374 38 371 14 q 414 75 378 60 q 425 78 419 78 q 436 81 431 79 q 794 368 647 160 q 849 463 818 413 q 919 565 881 513 q 927 581 922 572 q 939 603 932 590 q 975 682 963 647 q 986 743 988 717 q 975 800 986 771 q 1015 819 990 829 q 1024 817 1021 818 q 1029 817 1028 817 q 1079 710 1079 750 q 1046 619 1076 671 q 871 367 1004 521 q 820 307 839 329 q 794 278 801 285 q 508 44 658 144 q 482 31 497 40 m 400 547 q 358 560 383 531 q 347 583 350 572 q 326 638 343 599 q 293 782 274 771 q 376 701 319 792 q 418 619 407 654 q 408 557 439 599 q 400 547 406 553 z "},"テ":{"ha":1389,"x_min":178,"x_max":1203,"o":"m 422 796 q 481 774 460 789 q 506 748 503 760 q 495 738 510 736 q 447 763 481 739 q 361 843 414 786 l 360 844 q 361 899 339 885 q 435 881 385 911 q 699 897 529 861 q 704 899 701 899 q 710 900 707 899 q 915 924 843 932 q 932 921 924 922 q 949 918 940 919 q 983 892 975 918 q 985 881 985 888 q 960 846 985 857 q 949 844 956 844 q 644 826 819 872 q 583 810 628 821 q 422 796 533 796 m 343 -19 q 303 -6 315 -28 q 307 17 297 8 q 404 88 350 43 q 525 199 458 133 l 546 219 q 642 388 624 324 q 654 478 654 432 q 640 554 672 524 q 583 563 617 574 q 463 535 550 547 q 358 497 390 525 q 299 481 339 474 q 272 492 282 482 q 183 532 228 492 l 178 538 q 179 544 179 539 q 203 571 178 568 q 217 571 210 574 q 583 617 261 565 q 778 646 697 635 q 911 661 860 657 q 1017 689 942 661 q 1097 700 1069 710 q 1153 664 1114 700 q 1161 607 1203 614 q 1156 606 1158 606 q 1012 592 1100 596 q 801 588 924 588 q 435 35 718 232 q 346 -18 397 -3 q 343 -19 344 -19 z "},"ト":{"ha":1389,"x_min":536,"x_max":1144,"o":"m 618 -29 q 579 -10 585 -53 q 582 26 576 17 q 586 235 582 147 q 600 379 590 324 l 600 731 q 578 908 622 824 q 544 951 564 932 q 539 990 536 983 q 582 989 549 1000 q 692 911 674 957 q 694 847 701 885 q 683 722 688 815 q 675 476 678 629 q 676 226 672 333 q 689 47 679 118 q 673 7 690 26 q 636 -21 656 -12 l 618 -29 m 1111 311 q 1081 304 1094 301 q 997 326 1015 304 q 989 342 992 335 q 826 524 908 475 q 785 544 806 536 q 763 582 742 571 q 803 582 778 590 q 1024 446 957 506 q 1100 360 1069 404 q 1111 311 1144 333 z "},"ナ":{"ha":1389,"x_min":207,"x_max":1208,"o":"m 444 -7 q 369 -25 421 -25 q 406 44 328 -8 q 425 57 415 51 q 444 68 435 63 q 701 529 678 279 q 685 582 721 565 q 665 588 675 588 q 524 555 583 569 q 425 529 464 540 q 260 571 335 510 q 242 586 250 578 q 228 603 235 594 q 235 638 207 626 q 272 636 254 646 q 568 640 450 615 q 606 650 586 644 q 649 661 626 656 q 721 753 718 688 q 721 764 721 757 q 722 781 721 771 q 700 893 726 863 q 684 908 693 901 q 665 919 675 914 l 665 938 q 701 957 692 957 q 792 899 769 933 q 813 846 806 875 q 838 744 821 826 q 850 696 844 714 q 910 705 869 701 q 1011 710 951 708 q 1055 713 1035 711 q 1092 715 1075 714 q 1200 657 1186 726 q 1201 649 1201 653 q 1201 642 1201 644 q 1185 625 1208 633 q 1092 624 1140 608 q 953 649 994 654 q 939 646 946 647 q 925 642 932 644 q 833 613 850 628 q 794 513 807 590 q 444 -7 700 174 z "},"ニ":{"ha":1389,"x_min":140,"x_max":1253,"o":"m 554 568 q 450 565 472 556 q 360 640 425 575 q 714 676 513 618 q 833 697 749 676 q 869 704 853 701 q 900 708 886 707 q 961 682 943 710 q 946 644 975 656 q 936 642 940 643 q 926 640 932 642 q 874 622 908 622 q 600 583 769 639 q 581 577 593 581 q 554 568 569 574 m 431 178 q 207 185 342 124 q 196 190 201 188 q 183 196 190 193 q 164 210 175 204 q 147 232 149 222 q 182 261 140 265 q 196 258 188 260 q 215 254 204 257 q 236 250 232 250 q 449 250 343 224 q 675 309 543 285 q 978 349 807 333 q 1068 357 1011 351 q 1204 367 1135 390 q 1244 318 1253 347 q 1242 313 1243 315 q 1239 308 1240 311 q 1183 279 1208 265 q 1176 285 1181 281 q 807 267 1035 313 q 778 260 796 264 q 738 251 761 257 q 682 240 706 244 q 643 232 658 235 q 431 178 538 232 z "},"ヌ":{"ha":1389,"x_min":156,"x_max":1113,"o":"m 272 -3 q 201 -29 243 -32 q 156 -3 174 -28 q 167 26 156 15 q 175 36 168 29 q 542 279 365 72 q 586 334 561 303 q 639 404 611 365 q 653 456 675 422 q 621 482 642 471 q 615 484 621 482 q 599 489 610 486 q 582 501 589 496 q 547 519 553 501 q 545 531 546 525 q 544 542 544 536 q 679 521 593 565 q 796 561 731 496 q 874 696 832 635 q 864 729 894 719 q 833 735 851 735 q 563 676 707 735 q 350 696 432 613 q 304 742 313 715 q 311 756 300 756 q 369 756 340 783 q 517 746 425 717 q 529 751 522 749 q 544 756 536 753 q 773 798 663 783 q 989 813 883 813 q 1033 785 1022 813 q 1028 756 1039 767 q 916 607 964 675 q 833 482 868 539 q 855 447 843 464 q 882 415 867 431 q 915 383 901 394 q 944 360 928 371 q 988 329 960 349 l 989 328 q 1002 315 994 322 q 1019 299 1010 308 q 1104 194 1090 236 q 1106 192 1106 193 q 1092 132 1113 160 q 1028 133 1064 97 q 964 221 997 147 q 956 239 958 232 q 950 250 953 246 q 935 269 947 253 q 903 311 922 285 q 833 367 868 354 q 746 379 769 400 q 736 367 742 375 q 544 192 647 299 q 278 1 461 111 l 275 -1 l 274 -1 l 272 -3 z "},"ネ":{"ha":1389,"x_min":157,"x_max":1242,"o":"m 811 892 q 768 883 796 876 q 694 929 729 903 q 628 989 660 956 q 600 1053 586 1038 q 703 1028 629 1064 q 807 939 781 988 q 811 892 831 911 m 778 -58 q 760 -99 778 -83 q 724 -115 743 -115 q 696 -93 704 -115 q 693 -64 692 -79 q 690 125 681 1 q 692 168 692 149 q 693 203 693 188 q 693 372 722 288 q 654 399 665 396 q 636 389 644 397 q 561 315 589 367 q 461 244 526 293 q 327 153 388 192 q 221 88 267 114 q 178 101 199 78 q 190 142 157 126 l 203 146 q 369 259 260 176 q 638 476 478 342 q 671 503 657 492 q 693 522 685 515 q 807 713 782 613 q 603 675 731 713 q 558 663 578 668 q 524 656 539 658 q 374 694 421 622 q 350 733 349 717 q 367 751 351 749 q 406 735 383 754 q 411 731 408 733 q 521 718 458 700 q 531 721 525 719 q 546 725 538 722 q 555 728 551 728 q 561 731 558 729 q 610 747 571 733 q 718 785 650 761 q 756 798 738 792 q 788 807 774 804 l 901 807 q 943 769 933 807 q 939 731 949 744 q 915 681 929 721 q 908 666 913 672 q 901 656 904 660 q 821 570 854 608 q 768 504 788 532 q 765 435 746 481 q 767 432 767 433 q 768 429 767 431 q 783 389 768 426 q 788 372 788 379 q 789 315 788 350 q 793 236 790 281 q 783 -36 804 49 q 781 -47 782 -42 q 778 -58 779 -53 m 1232 236 q 1200 214 1222 214 q 1161 225 1179 214 l 1146 236 q 888 425 1019 397 q 868 461 847 446 q 910 467 882 469 q 1161 354 1025 449 q 1178 342 1165 351 q 1210 319 1190 333 q 1233 253 1242 300 q 1232 243 1232 247 q 1232 236 1232 239 z "},"ノ":{"ha":1389,"x_min":179,"x_max":1082,"o":"m 314 46 q 214 21 267 3 q 206 25 208 24 q 219 60 179 43 q 249 67 238 67 q 707 435 493 182 q 783 529 742 475 q 874 650 825 583 q 922 781 935 715 q 919 791 921 786 q 917 801 918 796 q 921 828 901 817 q 960 822 942 838 q 1004 807 967 822 q 1024 801 1015 801 q 1046 672 1082 743 q 918 528 1029 656 q 882 488 899 506 q 851 456 865 469 q 314 46 594 161 z "},"ハ":{"ha":1389,"x_min":76,"x_max":1229,"o":"m 165 128 q 107 114 146 108 q 94 139 76 121 q 100 144 97 142 q 106 147 103 146 q 147 174 113 154 q 158 180 153 176 q 165 186 163 183 q 496 539 386 347 q 501 548 499 542 q 508 561 504 554 q 531 636 540 613 q 524 647 528 642 q 517 656 521 651 q 521 713 490 707 q 529 714 525 714 q 536 714 533 714 q 554 722 544 722 q 569 718 564 722 l 575 714 q 640 607 642 667 q 638 592 639 599 q 633 578 636 585 q 478 372 556 460 q 328 226 401 283 q 249 172 289 196 q 165 128 208 147 m 1197 268 q 1129 294 1161 249 q 1126 300 1128 297 q 1122 304 1124 303 q 1070 385 1094 351 q 1025 440 1046 419 q 947 539 1003 482 q 939 544 944 542 q 924 551 933 547 q 868 597 874 571 q 869 635 865 617 q 951 600 908 635 q 986 578 972 585 q 1075 503 1026 547 q 1181 401 1124 458 q 1218 332 1211 372 q 1219 324 1219 328 q 1197 268 1229 283 z "},"ヒ":{"ha":1389,"x_min":281,"x_max":1044,"o":"m 1004 56 q 989 53 997 54 q 971 53 981 53 q 518 151 764 61 q 399 329 400 211 l 399 646 q 331 792 399 758 q 300 803 314 799 q 289 828 300 808 q 281 863 281 843 q 424 815 372 863 q 431 809 428 813 q 438 803 435 806 q 481 672 499 743 q 479 669 479 671 q 478 665 479 667 l 478 586 q 511 503 478 514 q 576 507 533 497 q 631 526 586 511 q 753 567 675 540 q 810 586 785 576 q 853 606 835 596 q 908 668 900 628 q 913 706 913 685 q 951 744 900 743 q 1024 697 997 744 q 1031 685 1029 689 q 1013 644 1044 672 q 998 633 1003 638 q 990 625 993 628 q 863 551 958 593 q 853 547 858 550 q 557 447 664 471 q 482 372 499 418 q 478 350 478 360 q 557 210 481 236 q 774 133 619 169 q 827 129 789 133 q 926 118 865 125 q 960 115 944 117 q 990 113 976 114 q 1035 88 1031 111 q 1004 56 1040 65 z "},"フ":{"ha":1389,"x_min":286,"x_max":1083,"o":"m 338 22 q 308 39 313 18 q 339 78 304 65 l 356 82 q 829 474 646 168 q 883 571 857 518 q 936 683 910 624 q 932 772 969 758 q 874 776 914 779 q 706 731 813 772 q 560 697 692 725 q 497 681 525 689 q 371 701 411 676 q 303 771 333 725 q 300 794 286 785 q 328 796 310 800 q 872 835 594 754 q 965 858 911 854 q 1079 774 1071 844 q 1068 710 1083 744 q 1008 613 1033 653 q 963 551 982 574 q 920 492 953 538 q 833 365 888 446 q 628 136 722 204 q 356 26 514 60 q 346 24 350 25 q 338 22 342 24 z "},"ヘ":{"ha":1389,"x_min":93,"x_max":1253,"o":"m 1183 189 q 1107 208 1157 188 q 1086 217 1094 215 q 1010 267 1056 235 q 906 349 965 300 q 827 408 876 368 q 708 507 778 447 q 671 540 688 525 q 640 564 654 554 q 517 607 563 629 q 494 591 506 601 q 472 567 483 581 q 431 526 454 550 q 378 471 408 503 l 286 379 q 193 342 243 328 q 117 381 165 350 q 96 417 96 413 q 125 439 93 432 l 128 439 q 290 468 218 413 q 315 488 301 476 q 344 515 328 500 q 449 619 410 594 q 501 660 483 646 q 521 675 519 674 q 608 667 553 690 q 619 663 614 665 q 631 657 625 660 l 751 557 q 1094 353 971 404 q 1142 335 1118 343 q 1189 321 1167 328 q 1251 247 1244 303 q 1253 240 1253 244 q 1253 233 1253 236 q 1183 189 1224 196 z "},"ホ":{"ha":1389,"x_min":182,"x_max":1215,"o":"m 669 -22 q 658 -25 661 -25 q 536 76 603 1 q 512 103 522 92 q 494 119 501 114 l 513 139 q 528 131 519 135 q 549 122 538 126 q 585 101 574 113 q 636 115 628 101 q 640 139 640 126 l 640 571 q 585 626 639 624 q 488 590 524 604 q 440 571 451 576 q 332 571 386 549 q 297 585 315 571 q 269 613 279 599 l 260 626 q 321 647 286 653 q 338 645 331 646 q 350 644 344 644 q 524 671 411 632 q 583 689 558 682 q 621 699 607 696 q 657 724 647 699 q 658 735 658 728 q 658 751 658 742 q 660 775 658 761 q 643 888 664 853 q 633 902 638 894 q 621 915 628 910 q 596 950 601 926 q 615 971 592 974 q 675 953 639 968 q 761 849 746 906 q 765 806 765 828 q 788 728 746 732 q 838 735 804 726 q 965 753 931 735 q 1083 724 1032 767 q 1092 717 1088 721 q 1100 708 1096 713 q 1093 702 1100 708 q 1071 685 1086 696 q 1019 663 1046 669 q 963 674 1003 658 q 929 681 942 681 q 830 672 865 675 q 788 665 794 668 q 743 615 754 656 q 738 574 742 606 q 728 486 733 542 q 728 430 728 474 q 729 313 728 386 q 731 160 731 218 q 731 83 731 103 q 713 13 731 36 q 704 2 708 7 q 694 -8 700 -3 q 688 -12 694 -8 q 669 -22 682 -15 m 1175 172 q 1128 189 1140 171 q 1126 192 1126 190 q 1106 215 1118 201 q 1076 249 1093 229 q 960 361 1008 335 q 875 390 921 383 q 971 407 919 435 q 987 399 976 404 q 1001 390 997 393 q 1153 293 1065 376 q 1169 278 1157 290 l 1183 264 q 1196 243 1190 256 q 1203 222 1201 231 l 1206 214 q 1175 172 1215 176 m 260 -8 q 210 -8 238 -18 q 219 28 182 4 q 222 29 221 29 q 276 81 232 46 q 332 139 313 111 q 406 363 422 258 q 404 374 406 369 q 400 406 382 396 q 422 410 411 410 q 493 393 458 426 q 513 354 510 376 l 513 318 q 499 294 507 308 q 481 261 492 281 q 408 138 442 189 q 346 60 374 88 q 305 22 326 39 q 260 -8 283 6 z "},"マ":{"ha":1389,"x_min":183,"x_max":1126,"o":"m 925 115 q 864 107 899 93 q 856 112 860 110 q 850 115 853 114 q 833 131 843 122 q 811 151 824 140 q 778 182 792 168 q 760 207 765 196 q 583 383 696 332 q 519 408 553 399 q 488 433 499 408 q 485 446 485 442 q 539 446 513 469 q 814 519 693 369 q 867 568 832 538 q 961 667 936 629 q 947 703 1000 699 l 943 703 q 838 708 897 713 q 706 685 779 703 l 704 685 q 611 672 675 679 q 411 629 474 656 q 238 658 343 603 q 186 700 183 685 q 188 701 188 701 q 190 703 189 701 q 282 711 228 728 q 319 703 307 703 l 428 703 q 528 719 456 706 q 718 754 600 732 q 790 767 757 761 q 850 776 822 774 q 926 781 876 776 q 1053 776 1017 788 q 1083 764 1064 769 q 1125 732 1118 750 q 1126 721 1126 728 q 1089 667 1125 700 q 821 457 892 524 q 740 372 775 414 q 828 283 772 314 q 830 282 829 282 q 832 281 831 282 q 871 255 847 274 q 925 207 894 236 q 946 156 946 165 q 925 115 943 136 z "},"ミ":{"ha":1389,"x_min":307,"x_max":1068,"o":"m 994 668 q 935 629 956 632 q 876 668 915 632 q 622 846 790 790 q 488 883 571 863 q 417 931 422 908 q 482 943 411 953 q 488 942 483 942 q 935 746 701 915 q 959 726 944 746 q 983 688 974 707 l 994 668 m 956 414 q 963 379 969 397 q 940 354 957 361 q 907 361 924 347 q 897 374 903 365 q 604 536 794 461 q 467 590 486 585 q 410 618 421 590 q 432 647 401 642 q 447 649 436 649 q 484 637 463 643 q 535 621 506 631 q 840 500 746 554 q 935 433 894 467 l 956 414 m 1033 -17 q 942 -19 1001 -37 q 876 22 899 -4 q 646 196 799 132 q 595 216 635 201 q 488 257 556 231 q 447 269 479 261 q 307 331 307 314 q 309 333 308 332 q 311 336 310 335 q 432 343 368 372 q 447 336 436 342 q 489 321 464 331 q 549 299 514 311 q 917 140 807 201 q 1058 36 1042 76 q 1033 -17 1068 6 z "},"ム":{"ha":1389,"x_min":290,"x_max":1210,"o":"m 1156 8 q 1130 17 1143 4 q 1108 47 1117 31 l 1101 63 q 1089 108 1096 78 q 1046 200 1069 182 q 1028 208 1035 207 q 908 211 990 219 q 884 209 894 210 q 865 208 874 208 q 615 172 719 190 q 447 136 511 154 q 319 117 408 117 q 293 128 299 111 q 301 154 290 143 q 361 217 311 175 q 378 232 371 225 q 392 244 386 239 q 628 699 547 450 q 610 881 657 813 q 588 911 590 886 q 613 928 586 935 q 665 899 633 922 q 747 765 763 842 q 719 699 742 736 q 540 354 671 582 q 519 317 526 329 q 483 263 486 283 q 484 241 475 254 q 506 218 493 228 l 519 208 q 919 263 786 246 q 938 354 968 290 q 913 375 932 360 q 861 415 893 390 q 828 444 843 431 q 868 465 842 471 q 878 463 874 464 q 883 463 882 463 q 1033 333 972 390 q 1128 233 1093 275 q 1153 203 1142 218 q 1174 172 1164 188 q 1210 63 1210 97 q 1196 44 1204 57 q 1156 8 1175 18 z "},"モ":{"ha":1389,"x_min":126,"x_max":1199,"o":"m 1100 92 q 1064 74 1089 72 q 1057 75 1060 75 q 1053 75 1054 75 q 835 115 926 96 q 688 149 744 133 q 542 331 543 181 l 542 386 q 508 419 542 411 q 497 422 503 421 q 486 422 492 422 q 458 414 481 419 q 400 400 436 408 q 376 393 386 397 q 358 386 365 389 q 196 397 264 361 q 176 409 186 403 q 157 422 167 415 q 131 451 135 428 q 156 479 126 478 q 166 479 161 479 q 176 478 171 479 q 468 478 322 449 q 538 531 526 507 q 542 551 542 542 q 519 660 564 617 q 486 679 504 674 q 331 769 376 719 q 322 806 310 794 q 621 797 442 765 q 643 801 631 799 q 674 807 656 804 q 734 819 708 814 q 778 825 760 824 q 876 847 804 825 q 939 858 917 858 q 971 846 949 853 q 1014 817 1007 836 q 1015 806 1015 813 q 986 767 1015 782 q 960 751 964 756 l 907 751 q 703 747 831 783 q 650 733 653 733 q 658 660 639 700 q 668 624 668 639 q 696 538 683 551 q 778 532 714 519 q 906 537 851 532 q 997 551 961 542 q 1175 517 1122 551 q 1181 514 1181 514 q 1199 493 1199 513 q 1186 478 1199 478 l 1181 478 q 1089 478 1121 451 q 724 460 947 497 q 658 432 667 444 q 650 367 650 418 q 646 353 650 361 q 650 331 639 342 q 688 208 650 238 q 743 185 710 193 q 771 179 754 183 q 810 169 788 175 q 1007 147 940 136 q 1015 149 1011 149 q 1104 142 1086 149 q 1100 92 1133 128 z "},"ヤ":{"ha":1389,"x_min":179,"x_max":1211,"o":"m 772 -61 q 726 -28 746 -62 q 718 -14 721 -19 q 713 -6 715 -8 q 633 382 661 214 q 632 389 632 386 q 632 393 632 392 q 583 511 600 496 q 497 507 561 532 q 472 497 488 503 q 435 481 457 490 q 203 526 294 444 q 193 568 179 550 q 239 585 206 583 q 496 593 331 524 q 501 596 499 594 q 507 599 504 597 q 539 612 533 600 q 543 657 544 624 l 543 658 q 454 885 535 790 q 433 936 411 924 q 510 926 453 946 q 629 818 596 899 q 661 676 638 704 q 669 671 665 674 q 676 665 674 668 q 772 667 718 640 q 809 685 796 678 q 828 693 822 692 q 1094 754 1024 763 q 1154 729 1132 747 q 1199 697 1182 732 q 1196 674 1211 674 q 1135 616 1181 660 q 1013 496 1089 572 q 963 448 986 469 q 921 410 940 426 q 861 406 874 381 q 871 440 851 424 q 879 446 874 443 q 1008 574 915 503 q 1019 583 1011 575 q 1028 589 1028 589 q 1051 635 1054 619 q 1043 647 1050 642 q 982 681 1040 685 q 922 656 971 675 q 788 606 874 638 q 741 588 763 596 q 700 571 719 579 q 683 536 683 571 q 685 527 685 533 q 685 514 685 521 q 818 81 696 471 q 828 50 824 63 q 833 31 832 38 q 821 -36 846 -3 q 772 -61 803 -58 z "},"ユ":{"ha":1389,"x_min":188,"x_max":1207,"o":"m 404 154 q 243 163 331 126 q 189 213 188 186 q 192 219 190 215 q 194 224 193 222 q 538 258 333 213 q 648 282 603 274 q 719 293 693 290 q 790 364 785 301 q 809 422 796 383 q 843 521 822 461 q 832 649 856 625 q 701 660 804 672 q 475 592 553 631 q 317 643 389 571 q 335 678 290 675 q 554 688 411 653 q 628 705 599 699 q 668 713 657 711 q 913 713 804 740 q 971 658 974 713 q 965 626 971 642 q 894 417 932 558 q 894 317 881 332 q 982 311 911 299 q 1153 281 1040 311 q 1165 278 1160 279 q 1175 275 1169 276 q 1192 225 1207 249 q 1140 224 1178 207 q 965 254 1053 249 q 767 240 878 260 q 672 223 711 231 q 598 206 633 215 q 517 185 563 197 q 406 154 472 174 l 404 154 z "},"ヨ":{"ha":1389,"x_min":236,"x_max":1111,"o":"m 989 97 q 958 83 989 82 q 919 99 935 86 q 903 201 919 167 q 826 204 879 213 q 812 202 818 203 q 800 201 806 201 q 421 115 625 201 q 308 133 365 99 q 283 150 299 140 q 283 201 236 189 q 554 229 378 189 q 679 254 644 249 q 851 271 732 271 q 936 344 910 286 q 938 443 960 399 l 903 461 l 764 461 q 717 451 744 457 q 653 436 689 444 q 579 420 611 426 q 524 408 547 414 q 446 419 485 388 l 439 426 q 472 461 440 458 q 640 494 533 476 q 903 531 747 511 q 969 567 957 531 q 972 582 972 578 q 985 639 972 592 q 989 668 989 654 q 947 725 989 724 q 933 723 940 724 q 919 719 926 722 q 679 686 849 719 q 558 651 629 686 q 413 639 486 608 q 351 668 399 643 q 324 701 324 675 q 344 726 324 725 q 356 724 350 725 q 368 719 363 722 q 572 719 450 693 q 635 732 613 728 q 661 738 658 736 q 739 758 689 749 q 861 776 789 767 q 938 789 913 783 q 967 796 942 789 q 1022 808 1003 808 q 1031 804 1025 807 q 1044 799 1036 801 q 1108 747 1104 774 q 1093 703 1111 726 q 1071 569 1093 657 q 1058 531 1064 540 q 1048 457 1054 500 q 1033 357 1042 414 q 1017 258 1024 301 q 1007 183 1011 214 q 999 147 1004 169 q 992 115 994 128 q 989 97 990 103 z "},"ラ":{"ha":1389,"x_min":265,"x_max":1122,"o":"m 615 776 q 435 826 517 757 q 420 840 428 833 q 404 854 413 847 q 390 875 392 857 q 422 890 389 896 l 425 890 q 647 869 515 829 q 678 880 660 874 q 722 896 697 886 q 749 905 738 901 q 768 911 761 908 q 975 929 842 929 q 1003 882 1000 907 q 996 872 1004 872 q 991 867 994 871 q 982 860 988 864 q 938 835 938 818 q 689 806 842 867 q 672 800 682 804 q 649 790 663 796 q 629 782 638 785 q 615 776 621 779 m 339 -31 q 289 -14 306 -36 q 306 26 269 11 q 329 33 318 32 q 586 154 451 53 q 610 172 596 161 q 642 197 624 183 q 692 236 669 219 q 729 263 714 253 q 925 522 840 350 q 931 536 928 529 q 938 549 935 543 q 940 555 938 549 q 947 575 942 561 q 938 586 946 583 q 911 618 938 618 q 882 606 894 618 q 776 581 840 600 q 622 532 711 563 q 554 508 585 518 q 500 492 524 499 q 307 504 383 440 q 269 576 265 540 q 271 582 271 579 q 272 586 271 585 l 311 586 q 576 606 438 538 q 716 643 631 625 q 918 679 801 661 l 924 679 l 925 681 l 932 681 l 933 682 l 938 682 q 1088 681 1033 719 q 1110 644 1107 664 q 1096 603 1122 617 q 1071 586 1075 590 q 996 486 1044 553 q 919 385 953 426 q 861 319 885 343 q 774 228 828 279 q 643 117 719 178 q 581 68 607 89 q 540 33 556 47 q 365 -25 490 3 q 351 -28 357 -26 q 339 -31 344 -29 z "},"ル":{"ha":1389,"x_min":93,"x_max":1290,"o":"m 743 107 q 681 119 704 85 q 671 163 671 138 q 689 311 671 257 q 688 681 713 528 q 681 719 685 700 q 672 758 676 739 q 665 839 646 801 q 707 850 681 864 q 744 826 713 844 q 755 819 750 824 q 764 813 760 815 q 782 739 782 794 l 782 274 q 806 250 782 257 q 838 256 824 246 q 1211 531 1082 414 q 1261 542 1236 554 q 1251 482 1290 526 q 1228 458 1240 469 q 861 192 1126 378 q 797 146 826 167 q 743 107 767 125 m 149 72 q 93 88 104 63 q 144 117 119 101 q 190 153 168 133 q 238 196 221 178 q 272 235 256 214 q 315 292 289 257 l 317 293 q 446 572 419 425 q 446 581 446 575 q 447 594 446 588 q 429 668 453 642 q 419 676 424 672 q 410 683 415 681 q 400 711 392 693 q 446 719 411 732 q 539 590 536 697 q 483 404 536 485 q 224 107 415 265 q 149 72 199 82 z "},"ロ":{"ha":1389,"x_min":275,"x_max":1117,"o":"m 422 136 q 374 131 410 107 q 357 151 360 142 l 357 300 q 350 358 356 311 q 335 488 344 406 q 329 527 332 508 q 324 564 326 546 q 297 635 324 592 q 284 658 290 647 q 275 679 278 669 q 294 690 281 679 q 308 694 301 694 q 482 668 381 651 q 503 672 489 669 q 538 679 517 675 q 629 695 565 686 q 794 718 693 704 q 961 747 897 733 q 1083 724 1044 767 q 1083 650 1117 688 l 1079 646 q 1047 482 1064 581 q 1014 251 1031 383 q 968 203 1014 214 q 958 201 963 201 q 949 201 953 201 q 671 228 844 247 q 639 224 660 226 q 588 218 618 221 q 572 214 582 217 q 547 208 561 211 q 436 157 464 190 q 428 147 432 151 q 422 136 425 142 m 439 317 q 522 251 440 254 q 622 271 558 261 q 778 290 686 281 q 826 295 804 293 q 865 300 847 297 q 932 350 931 303 q 982 629 947 432 q 947 676 990 663 q 910 682 931 682 q 865 679 889 682 q 553 629 660 644 q 474 608 504 618 q 435 589 444 599 q 417 492 413 568 q 419 467 418 482 q 422 432 421 453 q 439 317 422 350 z "},"ワ":{"ha":1389,"x_min":307,"x_max":1144,"o":"m 394 -28 q 328 -21 344 -49 q 336 10 318 -3 q 472 93 396 40 q 639 219 547 146 l 640 221 l 643 222 q 956 658 828 367 q 972 698 964 678 q 989 740 981 718 q 982 806 1010 782 q 950 817 967 817 l 893 817 q 856 812 879 815 q 803 806 833 808 q 546 749 629 788 q 536 745 540 747 q 528 740 532 743 q 451 625 454 699 l 451 472 q 435 447 458 458 q 374 472 400 433 l 374 625 q 347 803 374 746 q 334 830 342 817 q 317 856 326 843 q 314 881 307 861 q 374 875 329 910 q 588 831 460 810 q 606 834 597 832 q 625 838 615 836 q 1008 875 863 875 q 1067 856 1050 872 q 1125 822 1117 833 q 1104 760 1144 796 q 394 -28 863 219 z "},"ヲ":{"ha":1389,"x_min":283,"x_max":1142,"o":"m 375 -44 q 308 -56 342 -72 q 299 -29 285 -43 q 301 -28 300 -28 q 303 -26 301 -28 q 432 47 351 21 q 756 381 600 158 q 787 426 771 401 q 821 476 803 450 l 821 532 q 543 493 693 556 q 421 499 472 472 q 394 513 406 506 q 361 542 364 536 q 383 567 354 557 q 390 568 386 568 q 394 569 393 568 q 607 586 468 560 q 767 607 711 607 q 914 663 871 607 q 951 736 935 689 q 967 774 951 740 q 971 792 971 785 q 949 840 971 818 q 933 849 940 846 q 729 831 800 849 q 664 814 713 825 q 543 774 581 797 q 347 781 447 742 q 283 831 290 803 q 324 851 297 856 q 346 849 338 850 q 357 849 354 849 q 636 865 514 819 q 724 883 671 876 q 850 893 778 890 q 919 897 889 894 q 971 903 949 900 q 1093 910 1025 938 q 1138 858 1142 889 q 1119 831 1136 844 q 1053 720 1097 796 q 943 526 1008 644 q 878 417 908 467 q 821 326 847 367 q 375 -44 615 88 z "},"ン":{"ha":1389,"x_min":225,"x_max":1199,"o":"m 558 676 q 500 658 538 650 q 387 712 433 686 q 313 760 340 738 q 278 790 294 775 q 278 815 272 807 q 294 822 285 822 l 303 822 q 337 810 317 817 q 383 796 357 804 q 550 725 507 761 q 558 676 578 704 m 429 78 q 329 47 360 43 q 244 97 290 53 q 242 108 246 99 q 260 151 225 146 q 274 153 267 153 q 289 153 281 154 q 676 293 449 143 q 731 331 699 308 q 807 385 764 354 q 846 412 829 400 q 872 431 863 424 q 992 535 943 490 q 1067 610 1040 579 q 1112 667 1090 638 q 1151 728 1133 697 q 1181 742 1160 753 q 1188 711 1199 731 q 1113 581 1158 625 q 783 281 936 367 q 687 222 754 261 q 513 125 619 183 q 468 100 489 111 q 429 78 447 89 z "}}}
